<?xml version="1.0" encoding="UTF-8"?>
<!DOCTYPE svg PUBLIC "-//W3C//DTD SVG 1.1//EN" "http://www.w3.org/Graphics/SVG/1.1/DTD/svg11.dtd">
<svg xmlns="http://www.w3.org/2000/svg" version="1.1" width="416px" height="229px" style="shape-rendering:geometricPrecision; text-rendering:geometricPrecision; image-rendering:optimizeQuality; fill-rule:evenodd; clip-rule:evenodd" xmlns:xlink="http://www.w3.org/1999/xlink">
<g><path style="opacity:0.004" fill="#151515" d="M -0.5,-0.5 C 1.5,-0.5 3.5,-0.5 5.5,-0.5C 4.14976,0.649912 4.31643,1.31658 6,1.5C 7.30105,1.36126 8.13438,0.694594 8.5,-0.5C 12.8333,-0.5 17.1667,-0.5 21.5,-0.5C 20.7375,0.26791 19.7375,0.76791 18.5,1C 40.1811,1.24732 61.8477,1.74732 83.5,2.5C 82.2935,3.8804 82.6269,5.04707 84.5,6C 84.5,7.33333 84.5,8.66667 84.5,10C 85.8333,12 87.1667,14 88.5,16C 87.9394,17.5655 88.6061,18.8989 90.5,20C 90.5,21.3333 90.5,22.6667 90.5,24C 92.3939,25.1011 93.0606,26.4345 92.5,28C 92.6894,30.295 94.0228,32.295 96.5,34C 95.5419,35.1475 95.8753,36.1475 97.5,37C 96.4019,37.7697 96.4019,38.603 97.5,39.5C 91.7305,39.4053 87.3971,41.7386 84.5,46.5C 79.9905,47.3386 77.6571,50.0053 77.5,54.5C 71.8248,53.0007 67.4915,54.834 64.5,60C 60.5,60.6667 60.5,61.3333 64.5,62C 58.062,63.5796 58.062,64.413 64.5,64.5C 65.7491,70.6315 64.0825,75.6315 59.5,79.5C 61.0416,81.6529 62.7082,83.6529 64.5,85.5C 62.9412,87.1307 60.9412,87.964 58.5,88C 59.8333,88.3333 61.1667,88.6667 62.5,89C 60.7295,89.5354 60.3961,90.3687 61.5,91.5C 62.6652,90.5089 63.8319,89.5089 65,88.5C 65.772,88.6448 66.4387,88.9781 67,89.5C 65.6718,91.848 64.5051,94.5147 63.5,97.5C 65.1082,98.2421 66.7749,98.4087 68.5,98C 69.3366,99.0113 69.67,100.178 69.5,101.5C 70.9778,101.762 72.3112,101.429 73.5,100.5C 74.0183,98.1002 75.185,96.1002 77,94.5C 78.2362,95.3992 79.0696,96.5659 79.5,98C 77.7011,101.149 78.3677,103.482 81.5,105C 79.7148,106.163 77.7148,106.83 75.5,107C 74.0273,110.137 71.8607,112.637 69,114.5C 67.469,113.783 66.1357,112.783 65,111.5C 60.7973,112.239 59.6306,114.073 61.5,117C 59.9991,118.252 58.3325,119.252 56.5,120C 55.9115,122.514 54.5781,124.514 52.5,126C 53.5,126.833 54.5,127.667 55.5,128.5C 53.8689,130.297 51.8689,131.464 49.5,132C 51.5,132.333 53.5,132.667 55.5,133C 54,133.833 52.8333,135 52,136.5C 50.187,135.391 49.3537,136.058 49.5,138.5C 51.9201,138.708 54.2534,138.374 56.5,137.5C 62.8449,140.392 62.1782,142.225 54.5,143C 55.9348,145.267 55.6015,147.267 53.5,149C 50.7844,150.401 48.1177,150.901 45.5,150.5C 44.7109,150.217 44.0442,149.717 43.5,149C 44.5981,148.23 44.5981,147.397 43.5,146.5C 43.5,146.167 43.5,145.833 43.5,145.5C 41.8624,144.295 41.5291,142.962 42.5,141.5C 42.6107,140.883 42.944,140.383 43.5,140C 42.2068,139.51 40.8734,139.343 39.5,139.5C 39.5,139.167 39.5,138.833 39.5,138.5C 39.5,138.167 39.5,137.833 39.5,137.5C 39.5,137.167 39.5,136.833 39.5,136.5C 38.1667,135.5 36.8333,134.5 35.5,133.5C 36.1894,132.226 37.0228,132.226 38,133.5C 39.0217,132.646 39.8551,131.646 40.5,130.5C 38.8333,130.5 37.1667,130.5 35.5,130.5C 36.714,128.931 38.3807,128.098 40.5,128C 38.311,127.323 37.9776,126.156 39.5,124.5C 38.5,123.667 37.5,122.833 36.5,122C 40.0531,119.879 43.7197,118.379 47.5,117.5C 36.3321,117.368 35.9987,116.035 46.5,113.5C 46.1667,113.167 45.8333,112.833 45.5,112.5C 42.9159,113.393 40.2492,113.726 37.5,113.5C 37.5,114.5 37.5,115.5 37.5,116.5C 36.5,116.5 35.5,116.5 34.5,116.5C 32.4533,118.567 32.4533,120.4 34.5,122C 33.9288,123.205 33.2621,124.372 32.5,125.5C 30.5121,124.711 30.1787,123.545 31.5,122C 29.6803,121.8 28.347,120.966 27.5,119.5C 27.6107,118.883 27.944,118.383 28.5,118C 26.9586,116.629 25.6253,115.129 24.5,113.5C 23.129,111.541 22.129,109.375 21.5,107C 23.7885,106.178 26.1218,105.511 28.5,105C 27.5633,102.293 26.2299,99.7935 24.5,97.5C 25.2826,95.7118 26.6159,94.7118 28.5,94.5C 28.3691,95.3764 28.7025,96.0431 29.5,96.5C 30.463,96.0302 30.463,95.3635 29.5,94.5C 30.0431,94.44 30.3764,94.1067 30.5,93.5C 29.6667,93.1667 28.8333,92.8333 28,92.5C 25.6446,93.5127 23.3112,94.5127 21,95.5C 20.9953,92.7708 19.8287,90.7708 17.5,89.5C 17.2455,91.8111 16.9121,94.4778 16.5,97.5C 13.4215,96.336 13.0882,94.836 15.5,93C 14.1667,91.6667 12.8333,90.3333 11.5,89C 13.1273,86.2647 12.1273,84.098 8.5,82.5C 7.81525,80.5856 7.31525,78.5856 7,76.5C 6.33333,75.1667 5.66667,75.1667 5,76.5C 4.53566,75.9056 4.36899,75.2389 4.5,74.5C 4.26424,72.9509 4.26424,71.4509 4.5,70C 2.96252,68.2927 1.29585,66.7927 -0.5,65.5C -0.5,43.5 -0.5,21.5 -0.5,-0.5 Z M 1.5,16.5 C 2.22158,16.9175 2.72158,17.5842 3,18.5C 3.33333,18.1667 3.66667,17.8333 4,17.5C 3.19788,20.5113 3.36455,23.5113 4.5,26.5C 5.82207,26.33 6.98873,26.6634 8,27.5C 8.66667,29.5 8.66667,31.5 8,33.5C 5.83661,34.668 3.83661,35.3346 2,35.5C 1.50046,29.1754 1.33379,22.8421 1.5,16.5 Z M 1.5,36.5 C 2.25371,39.0227 2.92037,41.6894 3.5,44.5C 2.75646,47.443 2.25646,50.443 2,53.5C 1.50058,47.8431 1.33391,42.1764 1.5,36.5 Z M 38.5,36.5 C 41.0009,36.5109 41.1676,37.1776 39,38.5C 38.5357,37.9056 38.369,37.2389 38.5,36.5 Z M 18.5,59.5 C 19.675,59.281 20.675,59.6143 21.5,60.5C 19.9483,61.7979 18.9483,61.4646 18.5,59.5 Z M 18.5,65.5 C 19.3764,65.3691 20.0431,65.7025 20.5,66.5C 19.4991,69.3289 19.4991,72.3289 20.5,75.5C 22.9859,76.2438 24.9859,77.7438 26.5,80C 25.552,80.4828 24.552,80.6495 23.5,80.5C 23.8333,82.5 24.1667,84.5 24.5,86.5C 22.5,87.1667 20.5,87.8333 18.5,88.5C 17.758,83.9677 16.758,79.4677 15.5,75C 15.8181,71.5306 16.8181,68.3639 18.5,65.5 Z M 28.5,94.5 C 28.8333,94.5 29.1667,94.5 29.5,94.5C 30.463,95.3635 30.463,96.0302 29.5,96.5C 28.7025,96.0431 28.3691,95.3764 28.5,94.5 Z M 53.5,98.5 C 56.3035,97.3622 59.3035,97.1955 62.5,98C 59.5021,104.881 56.5021,105.048 53.5,98.5 Z M 29.5,98.5 C 30.8734,98.3433 32.2068,98.51 33.5,99C 31.5666,102.434 30.2333,102.267 29.5,98.5 Z M 63.5,99.5 C 65.337,99.6395 65.6704,100.306 64.5,101.5C 63.7025,101.043 63.3691,100.376 63.5,99.5 Z M 33.5,112.5 C 33.1218,110.354 32.7885,108.187 32.5,106C 32.4537,104.272 32.9537,102.772 34,101.5C 35.9527,104.306 37.1194,107.139 37.5,110C 36.6443,111.595 35.3109,112.428 33.5,112.5 Z M 43.5,108.5 C 41.567,108.271 39.9003,107.438 38.5,106C 41.2617,104.923 42.9283,105.756 43.5,108.5 Z M 43.5,108.5 C 45.7602,109.238 45.9269,110.238 44,111.5C 43.5172,110.552 43.3505,109.552 43.5,108.5 Z M 33.5,112.5 C 33.8333,113.833 34.1667,115.167 34.5,116.5C 32.8297,116.751 31.3297,117.418 30,118.5C 28.8785,115.128 30.0451,113.128 33.5,112.5 Z M 47.5,117.5 C 46.5249,115.46 47.1916,115.127 49.5,116.5C 49.0431,117.298 48.3764,117.631 47.5,117.5 Z M 50.5,122.5 C 44.0185,120.951 44.0185,119.951 50.5,119.5C 50.5,120.5 50.5,121.5 50.5,122.5 Z M 50.5,122.5 C 51.0431,122.56 51.3764,122.893 51.5,123.5C 50.4231,124.705 49.0898,125.372 47.5,125.5C 47.3893,124.883 47.056,124.383 46.5,124C 48.0581,123.79 49.3915,123.29 50.5,122.5 Z M 47.5,125.5 C 48.347,126.966 49.6803,127.8 51.5,128C 48.9325,129.904 46.5992,129.57 44.5,127C 45.5266,126.487 46.5266,125.987 47.5,125.5 Z"/></g>
<g><path style="opacity:0.004" fill="#161616" d="M 23.5,-0.5 C 36.5,-0.5 49.5,-0.5 62.5,-0.5C 49.5,0.833333 36.5,0.833333 23.5,-0.5 Z"/></g>
<g><path style="opacity:0.004" fill="#282828" d="M 410.5,-0.5 C 412.167,-0.5 413.833,-0.5 415.5,-0.5C 415.5,6.5 415.5,13.5 415.5,20.5C 414.835,18.6309 414.169,16.6309 413.5,14.5C 412.522,14.9767 411.689,15.6433 411,16.5C 410.83,18.7148 410.163,20.7148 409,22.5C 406.622,20.291 404.455,17.9576 402.5,15.5C 401.197,18.0431 400.197,20.7097 399.5,23.5C 401.588,26.461 403.255,29.6277 404.5,33C 406.955,34.6305 409.455,34.7972 412,33.5C 412.508,38.9166 413.675,43.9166 415.5,48.5C 415.5,77.8333 415.5,107.167 415.5,136.5C 413.692,137.317 412.192,136.65 411,134.5C 410.667,134.833 410.333,135.167 410,135.5C 408.667,134.167 407.333,132.833 406,131.5C 405.667,131.833 405.333,132.167 405,132.5C 395.513,125.945 386.346,119.945 377.5,114.5C 378.973,112.26 379.973,109.76 380.5,107C 379.167,106.667 377.833,106.333 376.5,106C 374.588,102.585 371.922,100.085 368.5,98.5C 372.282,96.8929 376.116,96.5595 380,97.5C 381.059,97.3699 381.892,96.8699 382.5,96C 381.624,93.1883 380.291,90.355 378.5,87.5C 382.182,87.6653 385.848,87.4986 389.5,87C 395.107,85.2038 400.774,83.2038 406.5,81C 406.694,78.3159 406.86,75.4826 407,72.5C 405.687,71.4272 404.187,70.7605 402.5,70.5C 396.832,72.417 391.332,74.7503 386,77.5C 383.88,76.5411 381.713,76.3744 379.5,77C 375.26,79.9468 370.926,82.6135 366.5,85C 364.963,86.1096 364.297,87.6096 364.5,89.5C 360.645,90.0457 356.978,91.0457 353.5,92.5C 366.763,83.7538 379.93,74.7538 393,65.5C 393.844,61.9939 392.51,59.6605 389,58.5C 386.35,59.6726 383.85,61.0059 381.5,62.5C 384.756,57.3775 388.922,56.3775 394,59.5C 393.689,58.0654 393.855,56.7321 394.5,55.5C 394.023,54.5224 393.357,53.6891 392.5,53C 394.886,52.7165 395.552,51.7165 394.5,50C 391.5,49.3333 388.5,49.3333 385.5,50C 387.285,51.1628 389.285,51.8295 391.5,52C 381.481,53.9049 371.481,55.5715 361.5,57C 364.254,55.4203 364.088,54.2536 361,53.5C 359.225,54.2703 357.725,55.437 356.5,57C 357.328,57.9147 358.328,58.5814 359.5,59C 356.82,63.0335 353.153,65.7001 348.5,67C 346.639,68.0283 345.305,69.5283 344.5,71.5C 340.932,72.9696 337.599,72.6363 334.5,70.5C 336.743,69.5258 339.076,69.1924 341.5,69.5C 341.33,68.1779 341.663,67.0113 342.5,66C 347.157,64.5654 351.49,62.5654 355.5,60C 354.167,59 352.833,58 351.5,57C 351.833,56.6667 352.167,56.3333 352.5,56C 349.104,53.5452 345.437,53.0452 341.5,54.5C 339.556,53.8108 337.556,53.3108 335.5,53C 334.359,52.2588 334.359,51.4255 335.5,50.5C 331.767,49.6754 328.434,50.6754 325.5,53.5C 323.568,52.4798 321.568,52.3131 319.5,53C 320.672,53.4186 321.672,54.0853 322.5,55C 321.283,56.6477 320.45,58.481 320,60.5C 317.467,60.0504 315.3,59.0504 313.5,57.5C 305.74,47.8978 297.74,38.3978 289.5,29C 289.833,28.6667 290.167,28.3333 290.5,28C 288.5,26 286.5,24 284.5,22C 284.833,21.6667 285.167,21.3333 285.5,21C 283.833,19.3333 282.167,17.6667 280.5,16C 280.833,15.6667 281.167,15.3333 281.5,15C 278.503,12.9368 276.837,10.4368 276.5,7.5C 282.015,7.62896 287.682,7.29563 293.5,6.5C 295.638,7.24306 297.804,7.90973 300,8.5C 315.002,6.98284 330.002,5.98284 345,5.5C 357.877,7.64048 370.377,6.47381 382.5,2C 391.167,1.66667 399.833,1.33333 408.5,1C 409.416,0.721579 410.082,0.221579 410.5,-0.5 Z M 412.5,6.5 C 413.598,7.60093 413.765,8.93426 413,10.5C 411.232,9.31814 411.065,7.9848 412.5,6.5 Z M 374.5,14.5 C 378.214,14.7907 379.547,16.624 378.5,20C 381.73,25.36 380.397,28.86 374.5,30.5C 372.519,30.5629 370.852,29.8962 369.5,28.5C 371.5,26.1667 373.5,23.8333 375.5,21.5C 373.385,19.3848 373.051,17.0514 374.5,14.5 Z M 385.5,20.5 C 388.787,21.264 391.454,23.0973 393.5,26C 395.134,26.4935 396.801,26.6602 398.5,26.5C 398.739,28.4672 398.406,30.3005 397.5,32C 394.512,33.4377 391.512,33.9377 388.5,33.5C 386.271,32.6961 385.938,31.3627 387.5,29.5C 384.538,27.023 383.871,24.023 385.5,20.5 Z M 395.5,36.5 C 396.386,35.2241 397.386,35.2241 398.5,36.5C 397.575,37.5624 396.575,37.5624 395.5,36.5 Z M 368.5,51.5 C 370.924,51.1924 373.257,51.5258 375.5,52.5C 372.634,53.208 369.8,53.8747 367,54.5C 366.5,54 366,53.5 365.5,53C 366.737,52.7679 367.737,52.2679 368.5,51.5 Z M 386.5,100.5 C 389.173,100.684 389.84,101.851 388.5,104C 384.183,104.696 383.516,103.53 386.5,100.5 Z M 384.5,109.5 C 387.056,109.132 389.056,109.966 390.5,112C 390.355,112.772 390.022,113.439 389.5,114C 387.866,114.494 386.199,114.66 384.5,114.5C 384.5,112.833 384.5,111.167 384.5,109.5 Z"/></g>
<g><path style="opacity:0.004" fill="#1b1b1b" d="M 161.5,4.5 C 162.625,6.12879 163.959,7.62879 165.5,9C 164.833,9.66667 164.167,10.3333 163.5,11C 165.5,13 167.5,15 169.5,17C 168.833,17.6667 168.167,18.3333 167.5,19C 169.5,21 171.5,23 173.5,25C 172.833,25.6667 172.167,26.3333 171.5,27C 173.5,29 175.5,31 177.5,33C 176.001,33.8382 175.668,34.6715 176.5,35.5C 176.5,36.1667 176.833,36.5 177.5,36.5C 178.167,37.5 178.833,38.5 179.5,39.5C 178.167,39.5 176.833,39.5 175.5,39.5C 178.141,46.0712 180.808,52.7378 183.5,59.5C 182.167,60.5 182.167,61.5 183.5,62.5C 180.984,63.3955 178.651,62.8955 176.5,61C 177.634,59.984 177.301,59.3173 175.5,59C 176.167,58.6667 176.833,58.3333 177.5,58C 173.538,56.7892 172.871,54.7892 175.5,52C 173.333,49.8333 171.167,47.6667 169,45.5C 168.667,46.5 168.333,47.5 168,48.5C 165.418,48.1115 162.751,48.1115 160,48.5C 155.493,46.5482 151.16,44.2148 147,41.5C 144.988,43.5622 142.988,45.5622 141,47.5C 138.625,47.1822 137.458,45.8489 137.5,43.5C 134.746,43.2155 132.08,42.5488 129.5,41.5C 130.025,40.8076 130.692,40.3076 131.5,40C 129.326,38.2029 126.993,38.0362 124.5,39.5C 120.423,35.6073 116.423,35.6073 112.5,39.5C 107.515,38.2852 102.515,38.2852 97.5,39.5C 96.4019,38.603 96.4019,37.7697 97.5,37C 95.8753,36.1475 95.5419,35.1475 96.5,34C 94.0228,32.295 92.6894,30.295 92.5,28C 93.0606,26.4345 92.3939,25.1011 90.5,24C 90.5,22.6667 90.5,21.3333 90.5,20C 88.6061,18.8989 87.9394,17.5655 88.5,16C 87.1667,14 85.8333,12 84.5,10C 84.5,8.66667 84.5,7.33333 84.5,6C 82.6269,5.04707 82.2935,3.8804 83.5,2.5C 99.4983,1.85182 115.498,1.68516 131.5,2C 132.167,2.33333 132.833,2.66667 133.5,3C 125.88,3.745 126.214,4.57833 134.5,5.5C 137.758,5.26903 140.758,4.26903 143.5,2.5C 146.063,2.73703 146.063,3.23703 143.5,4C 149.491,4.49949 155.491,4.66615 161.5,4.5 Z M 136.5,35.5 C 139.005,34.5033 141.672,34.5033 144.5,35.5C 144.561,37.5922 145.561,39.0922 147.5,40C 145.26,40.977 142.927,41.477 140.5,41.5C 140.378,38.7079 139.044,36.7079 136.5,35.5 Z M 162.5,44.5 C 157.204,43.3117 157.204,42.4784 162.5,42C 163.598,42.7697 163.598,43.603 162.5,44.5 Z"/></g>
<g><path style="opacity:0.004" fill="#212121" d="M 276.5,7.5 C 276.837,10.4368 278.503,12.9368 281.5,15C 281.167,15.3333 280.833,15.6667 280.5,16C 282.167,17.6667 283.833,19.3333 285.5,21C 285.167,21.3333 284.833,21.6667 284.5,22C 286.5,24 288.5,26 290.5,28C 290.167,28.3333 289.833,28.6667 289.5,29C 297.74,38.3978 305.74,47.8978 313.5,57.5C 310.501,56.4261 307.501,56.5928 304.5,58C 305.5,58.3333 306.5,58.6667 307.5,59C 308.833,59.6667 308.833,60.3333 307.5,61C 303.848,61.889 300.182,62.2224 296.5,62C 295.809,60.9326 295.309,59.7659 295,58.5C 291.951,56.0734 289.117,53.4068 286.5,50.5C 286.709,49.914 287.043,49.414 287.5,49C 286.167,48.6667 284.833,48.3333 283.5,48C 280.744,44.5733 277.41,41.9066 273.5,40C 269.196,39.3648 265.03,38.5314 261,37.5C 260,37.8333 259,38.1667 258,38.5C 253.371,37.0561 248.871,35.3894 244.5,33.5C 239.134,35.9653 238.801,38.2986 243.5,40.5C 240.78,42.9623 237.78,43.129 234.5,41C 237.207,38.3729 237.041,36.2062 234,34.5C 232.566,34.9304 231.399,35.7638 230.5,37C 231.833,37.6667 231.833,38.3333 230.5,39C 229.099,39.4101 227.766,39.9101 226.5,40.5C 223.331,42.1621 219.831,43.4955 216,44.5C 214.087,42.8131 211.92,42.3131 209.5,43C 210.167,43.6667 210.833,44.3333 211.5,45C 209.396,45.7908 208.063,47.2908 207.5,49.5C 206.3,48.4688 204.966,47.6355 203.5,47C 207.046,45.0706 207.046,43.5706 203.5,42.5C 205.423,41.6922 207.423,41.1922 209.5,41C 210.833,40.3333 210.833,39.6667 209.5,39C 205.298,39.3539 201.298,39.8539 197.5,40.5C 195.358,39.3995 193.192,38.3995 191,37.5C 187.35,39.0462 183.516,39.7129 179.5,39.5C 178.833,38.5 178.167,37.5 177.5,36.5C 176.833,36.5 176.5,36.1667 176.5,35.5C 175.668,34.6715 176.001,33.8382 177.5,33C 175.5,31 173.5,29 171.5,27C 172.167,26.3333 172.833,25.6667 173.5,25C 171.5,23 169.5,21 167.5,19C 168.167,18.3333 168.833,17.6667 169.5,17C 167.5,15 165.5,13 163.5,11C 164.167,10.3333 164.833,9.66667 165.5,9C 163.959,7.62879 162.625,6.12879 161.5,4.5C 169.016,4.43081 176.349,4.76415 183.5,5.5C 185.115,4.84598 186.782,4.34598 188.5,4C 187.5,3.66667 186.5,3.33333 185.5,3C 197.123,1.47282 208.79,1.13948 220.5,2C 214.539,2.99682 208.539,3.66348 202.5,4C 202.833,4.33333 203.167,4.66667 203.5,5C 222.447,6.13924 241.28,6.30591 260,5.5C 265.481,6.31648 270.981,6.98315 276.5,7.5 Z M 194.5,4.5 C 196.288,3.37753 198.288,3.21086 200.5,4C 198.45,5.3318 196.45,5.49846 194.5,4.5 Z M 226.5,40.5 C 225.178,40.33 224.011,40.6634 223,41.5C 220.674,40.287 220.341,38.9537 222,37.5C 223.666,38.3479 225.166,39.3479 226.5,40.5 Z"/></g>
<g><path style="opacity:0.004" fill="#222322" d="M 225.5,1.5 C 234.608,1.05678 243.608,1.55678 252.5,3C 243.778,3.13956 235.112,3.30623 226.5,3.5C 225.702,3.04311 225.369,2.37644 225.5,1.5 Z"/></g>
<g><path style="opacity:0.004" fill="#1e1e1e" d="M 156.5,3.5 C 158.628,2.37086 160.961,2.20419 163.5,3C 161.19,3.49665 158.857,3.66331 156.5,3.5 Z"/></g>
<g><path style="opacity:0.004" fill="#1f201f" d="M 189.5,47.5 C 188.733,46.828 188.066,45.9947 187.5,45C 191.22,44.5084 191.887,45.3417 189.5,47.5 Z"/></g>
<g><path style="opacity:0.004" fill="#202020" d="M 229.5,44.5 C 233.243,44.4592 233.41,45.1259 230,46.5C 229.536,45.9056 229.369,45.2389 229.5,44.5 Z"/></g>
<g><path style="opacity:0.004" fill="#1b1c1b" d="M 125.5,45.5 C 130.753,49.7395 130.253,50.7395 124,48.5C 123.761,47.212 124.261,46.212 125.5,45.5 Z"/></g>
<g><path style="opacity:0.992" fill="#f7f7f7" d="M 124.5,56.5 C 125.833,60.8333 125.833,65.1667 124.5,69.5C 123.197,71.1423 121.864,72.8089 120.5,74.5C 120.158,75.3382 119.492,75.6716 118.5,75.5C 110.266,75.953 108.599,72.953 113.5,66.5C 116.451,62.7798 115.784,59.6131 111.5,57C 107.863,54.8549 104.53,55.0216 101.5,57.5C 99.9731,57.427 98.9731,58.0937 98.5,59.5C 96.2918,60.8936 94.7918,62.8936 94,65.5C 93.3333,69.5 93.3333,73.5 94,77.5C 98.8019,93.5718 103.802,109.572 109,125.5C 111.693,132.623 116.193,134.29 122.5,130.5C 126.182,127.992 130.182,125.992 134.5,124.5C 137.485,123.674 140.151,122.341 142.5,120.5C 144.027,120.573 145.027,119.906 145.5,118.5C 147.38,118.771 148.713,118.104 149.5,116.5C 149.842,115.662 150.508,115.328 151.5,115.5C 153.674,115.25 155.341,114.25 156.5,112.5C 158.153,112.34 159.486,111.674 160.5,110.5C 162.434,109.89 164.101,108.89 165.5,107.5C 167.027,107.573 168.027,106.906 168.5,105.5C 170.027,105.573 171.027,104.906 171.5,103.5C 171.842,102.662 172.508,102.328 173.5,102.5C 175.027,102.573 176.027,101.906 176.5,100.5C 176.842,99.6618 177.508,99.3284 178.5,99.5C 180.027,99.573 181.027,98.9063 181.5,97.5C 181.833,97.5 182.167,97.5 182.5,97.5C 183.5,97.1667 184.167,96.5 184.5,95.5C 184.842,94.6618 185.508,94.3284 186.5,94.5C 188.027,94.573 189.027,93.9063 189.5,92.5C 191.027,92.573 192.027,91.9063 192.5,90.5C 194.027,90.573 195.027,89.9063 195.5,88.5C 199.25,87.5886 202.25,85.5886 204.5,82.5C 206.027,82.573 207.027,81.9063 207.5,80.5C 207.833,80.5 208.167,80.5 208.5,80.5C 209.833,79.8333 210.833,78.8333 211.5,77.5C 212.5,76.8333 213.5,76.1667 214.5,75.5C 216.027,75.573 217.027,74.9063 217.5,73.5C 217.842,72.6618 218.508,72.3284 219.5,72.5C 221.23,71.9744 222.564,70.9744 223.5,69.5C 225.027,69.573 226.027,68.9063 226.5,67.5C 228.027,67.573 229.027,66.9063 229.5,65.5C 231.749,64.9202 233.415,63.5869 234.5,61.5C 234.5,60.8333 234.833,60.5 235.5,60.5C 236.974,59.5637 237.974,58.2303 238.5,56.5C 240.5,55.1667 242.167,53.5 243.5,51.5C 245.027,51.573 246.027,50.9063 246.5,49.5C 249.152,49.5905 251.485,48.9238 253.5,47.5C 256.5,46.1667 259.5,46.1667 262.5,47.5C 278.79,55.7468 281.79,67.4135 271.5,82.5C 269.326,82.7497 267.659,83.7497 266.5,85.5C 264.435,85.4828 262.435,85.1495 260.5,84.5C 260.517,82.4352 260.85,80.4352 261.5,78.5C 263.144,78.1898 264.144,77.1898 264.5,75.5C 266.548,73.5436 267.548,71.0436 267.5,68C 267.68,65.1979 266.68,63.0313 264.5,61.5C 263.738,59.7376 262.404,58.7376 260.5,58.5C 258.034,57.3659 255.367,57.1993 252.5,58C 251.944,58.3826 251.611,58.8826 251.5,59.5C 248.178,60.6582 246.012,62.9916 245,66.5C 244.196,72.5692 244.529,78.5692 246,84.5C 250.221,96.4949 255.221,108.162 261,119.5C 263.113,123.202 265.946,124.202 269.5,122.5C 271.153,122.34 272.486,121.674 273.5,120.5C 273.833,120.5 274.167,120.5 274.5,120.5C 276.819,120.008 278.819,119.008 280.5,117.5C 282.698,117.88 284.365,117.213 285.5,115.5C 285.842,114.662 286.508,114.328 287.5,114.5C 289.153,114.34 290.486,113.674 291.5,112.5C 293.553,112.598 295.22,111.931 296.5,110.5C 298.819,110.008 300.819,109.008 302.5,107.5C 302.833,107.5 303.167,107.5 303.5,107.5C 305.153,107.34 306.486,106.674 307.5,105.5C 307.842,104.662 308.508,104.328 309.5,104.5C 311.153,104.34 312.486,103.674 313.5,102.5C 315.153,102.34 316.486,101.674 317.5,100.5C 319.153,100.34 320.486,99.6737 321.5,98.5C 323.181,96.9925 325.181,95.9925 327.5,95.5C 329.027,95.573 330.027,94.9063 330.5,93.5C 332.181,91.9925 334.181,90.9925 336.5,90.5C 338.027,90.573 339.027,89.9063 339.5,88.5C 339.842,87.6618 340.508,87.3284 341.5,87.5C 343.674,87.2503 345.341,86.2503 346.5,84.5C 348.674,84.2503 350.341,83.2503 351.5,81.5C 352.514,80.3263 353.847,79.6596 355.5,79.5C 357.777,78.5514 359.777,77.2181 361.5,75.5C 365.025,74.2411 368.025,72.2411 370.5,69.5C 373.704,68.6167 376.371,66.9501 378.5,64.5C 380.027,64.573 381.027,63.9063 381.5,62.5C 383.85,61.0059 386.35,59.6726 389,58.5C 392.51,59.6605 393.844,61.9939 393,65.5C 379.93,74.7538 366.763,83.7538 353.5,92.5C 339.318,100.425 324.984,108.091 310.5,115.5C 306.418,116.376 302.751,118.043 299.5,120.5C 293.497,122.557 287.497,124.724 281.5,127C 278.102,128.357 275.102,130.19 272.5,132.5C 264.498,137.695 259.331,145.028 257,154.5C 249.975,165.264 240.142,169.931 227.5,168.5C 225.113,166.087 222.946,163.42 221,160.5C 220.505,157.469 220.671,154.469 221.5,151.5C 223.063,150.055 224.396,148.389 225.5,146.5C 227.749,145.92 229.415,144.587 230.5,142.5C 232.027,142.573 233.027,141.906 233.5,140.5C 233.842,139.662 234.508,139.328 235.5,139.5C 237.153,139.34 238.486,138.674 239.5,137.5C 247.941,133.047 251.108,126.047 249,116.5C 242.258,102.685 236.925,88.3512 233,73.5C 231.188,75.3003 229.355,76.9669 227.5,78.5C 225.596,78.7376 224.262,79.7376 223.5,81.5C 219.975,82.7589 216.975,84.7589 214.5,87.5C 211.63,88.4333 209.296,90.1 207.5,92.5C 205.973,92.427 204.973,93.0937 204.5,94.5C 203.71,95.4013 202.71,96.0679 201.5,96.5C 199.147,97.3403 197.147,98.6736 195.5,100.5C 193.973,100.427 192.973,101.094 192.5,102.5C 190.326,102.75 188.659,103.75 187.5,105.5C 185.973,105.427 184.973,106.094 184.5,107.5C 182.326,107.75 180.659,108.75 179.5,110.5C 177.973,110.427 176.973,111.094 176.5,112.5C 174.326,112.75 172.659,113.75 171.5,115.5C 169.973,115.427 168.973,116.094 168.5,117.5C 168.158,118.338 167.492,118.672 166.5,118.5C 163.669,119.079 161.336,120.412 159.5,122.5C 155.345,123.742 151.678,125.742 148.5,128.5C 138.355,132.738 128.688,137.738 119.5,143.5C 115.933,145.557 112.766,148.223 110,151.5C 105.996,163.173 100.663,174.173 94,184.5C 88.6496,190.414 82.8163,195.748 76.5,200.5C 67.7271,205.026 58.3938,207.026 48.5,206.5C 48.1667,206.5 47.8333,206.5 47.5,206.5C 45.9582,205.699 44.2915,205.366 42.5,205.5C 31.3923,199.52 29.0589,191.187 35.5,180.5C 38.5819,178.628 41.2486,176.295 43.5,173.5C 43.5,172.833 43.8333,172.5 44.5,172.5C 46.754,171.876 48.4206,170.543 49.5,168.5C 51.0269,168.573 52.0269,167.906 52.5,166.5C 54.4341,165.89 56.1007,164.89 57.5,163.5C 61.1513,162.341 64.4846,160.674 67.5,158.5C 67.8417,157.662 68.5084,157.328 69.5,157.5C 71.153,157.34 72.4863,156.674 73.5,155.5C 73.8333,155.5 74.1667,155.5 74.5,155.5C 76.153,155.34 77.4863,154.674 78.5,153.5C 79.5137,152.326 80.847,151.66 82.5,151.5C 84.3797,151.771 85.713,151.104 86.5,149.5C 86.8417,148.662 87.5084,148.328 88.5,148.5C 90.4044,148.262 91.7377,147.262 92.5,145.5C 94.1436,145.19 95.1436,144.19 95.5,142.5C 97.1361,141.251 98.3028,139.584 99,137.5C 99.6667,132.833 99.6667,128.167 99,123.5C 94.8748,110.792 90.5414,98.125 86,85.5C 84.6997,78.229 84.1997,70.8956 84.5,63.5C 85.9633,59.7922 87.63,56.1255 89.5,52.5C 92.1354,51.1891 94.4687,49.5224 96.5,47.5C 96.8333,47.5 97.1667,47.5 97.5,47.5C 108.341,45.1138 117.341,48.1138 124.5,56.5 Z M 202.5,134.5 C 203.873,134.343 205.207,134.51 206.5,135C 207.451,135.718 207.617,136.551 207,137.5C 202.636,139.544 201.136,138.544 202.5,134.5 Z M 247.5,152.5 C 245.833,153.5 244.5,154.833 243.5,156.5C 241.973,156.427 240.973,157.094 240.5,158.5C 234.311,160.449 232.477,158.449 235,152.5C 237.335,150.6 239.502,148.6 241.5,146.5C 244.006,145.25 246.673,144.584 249.5,144.5C 249.416,147.327 248.75,149.994 247.5,152.5 Z M 83.5,181.5 C 82.8333,181.5 82.5,181.833 82.5,182.5C 78.2934,184.435 74.6267,187.102 71.5,190.5C 69.326,190.75 67.6594,191.75 66.5,193.5C 66.1667,193.5 65.8333,193.5 65.5,193.5C 59.6595,195.398 53.6595,195.898 47.5,195C 45.161,192.113 44.8276,188.946 46.5,185.5C 48.736,184.611 50.736,183.278 52.5,181.5C 53.3081,181.808 53.9747,182.308 54.5,183C 52.4614,185.553 50.2947,188.053 48,190.5C 47.3457,189.304 46.8457,189.304 46.5,190.5C 54.449,194.822 62.1157,194.322 69.5,189C 74.1667,185.667 78.1667,181.667 81.5,177C 80.1667,176.333 78.8333,176.333 77.5,177C 75.919,179.395 73.919,179.895 71.5,178.5C 73.5453,176.949 75.0453,174.949 76,172.5C 79.3892,171.071 82.8892,169.904 86.5,169C 90.6933,164.348 89.6933,162.848 83.5,164.5C 82.3215,162.493 82.8215,162.16 85,163.5C 85.3173,161.699 85.984,161.366 87,162.5C 88.049,160.893 89.549,160.227 91.5,160.5C 92.5056,163.77 92.3389,167.104 91,170.5C 88.6443,174.34 86.1443,178.006 83.5,181.5 Z M 83.5,164.5 C 82.6136,165.776 81.6136,165.776 80.5,164.5C 81.2334,163.913 82.2334,163.913 83.5,164.5 Z M 55.5,179.5 C 58.4357,175.043 60.1024,175.043 60.5,179.5C 58.8333,179.5 57.1667,179.5 55.5,179.5 Z"/></g>
<g><path style="opacity:0.004" fill="#1f1f1f" d="M 189.5,47.5 C 190.573,48.2506 190.74,49.2506 190,50.5C 188.272,49.6477 188.105,48.6477 189.5,47.5 Z"/></g>
<g><path style="opacity:0.141" fill="#303030" d="M 96.5,47.5 C 94.4687,49.5224 92.1354,51.1891 89.5,52.5C 90.9786,49.6951 93.3119,48.0284 96.5,47.5 Z"/></g>
<g><path style="opacity:0.082" fill="#303030" d="M 124.5,56.5 C 117.341,48.1138 108.341,45.1138 97.5,47.5C 107.337,43.8797 116.004,45.8797 123.5,53.5C 124.127,54.4168 124.461,55.4168 124.5,56.5 Z"/></g>
<g><path style="opacity:0.835" fill="#888888" d="M 253.5,47.5 C 251.485,48.9238 249.152,49.5905 246.5,49.5C 248.438,47.8372 250.772,47.1706 253.5,47.5 Z"/></g>
<g><path style="opacity:0.62" fill="#6b6b6b" d="M 246.5,49.5 C 246.027,50.9063 245.027,51.573 243.5,51.5C 243.973,50.0937 244.973,49.427 246.5,49.5 Z"/></g>
<g><path style="opacity:0.541" fill="#626262" d="M 243.5,51.5 C 242.167,53.5 240.5,55.1667 238.5,56.5C 239.167,53.8333 240.833,52.1667 243.5,51.5 Z"/></g>
<g><path style="opacity:0.035" fill="#2d2d2d" d="M 89.5,52.5 C 87.63,56.1255 85.9633,59.7922 84.5,63.5C 84.2964,58.9118 85.963,55.2451 89.5,52.5 Z"/></g>
<g><path style="opacity:0.036" fill="#3a3a3a" d="M 113.5,66.5 C 113.534,58.2057 109.534,55.2057 101.5,57.5C 104.53,55.0216 107.863,54.8549 111.5,57C 115.784,59.6131 116.451,62.7798 113.5,66.5 Z"/></g>
<g><path style="opacity:0.004" fill="#232323" d="M 260.5,58.5 C 259.593,61.8045 258.093,62.1378 256,59.5C 254.984,60.6341 254.317,60.3008 254,58.5C 253.329,59.2524 252.496,59.5858 251.5,59.5C 251.611,58.8826 251.944,58.3826 252.5,58C 255.367,57.1993 258.034,57.3659 260.5,58.5 Z"/></g>
<g><path style="opacity:0.016" fill="#202020" d="M 101.5,57.5 C 101.027,58.9063 100.027,59.573 98.5,59.5C 98.9731,58.0937 99.9731,57.427 101.5,57.5 Z"/></g>
<g><path style="opacity:0.004" fill="#1b1c1b" d="M 160.5,59.5 C 162.265,58.5386 164.265,58.2053 166.5,58.5C 166.286,60.1439 166.62,61.6439 167.5,63C 165.667,63.5 164.5,64.6667 164,66.5C 163.25,65.8742 162.416,65.3742 161.5,65C 161.616,63.7318 161.949,62.3985 162.5,61C 161.956,60.2828 161.289,59.7828 160.5,59.5 Z"/></g>
<g><path style="opacity:0.412" fill="#3b3b3b" d="M 238.5,56.5 C 237.974,58.2303 236.974,59.5637 235.5,60.5C 235.554,58.368 236.554,57.0347 238.5,56.5 Z"/></g>
<g><path style="opacity:0.06" fill="#262626" d="M 260.5,58.5 C 262.404,58.7376 263.738,59.7376 264.5,61.5C 262.596,61.2624 261.262,60.2624 260.5,58.5 Z"/></g>
<g><path style="opacity:0.174" fill="#1d1d1d" d="M 124.5,56.5 C 125.117,56.6107 125.617,56.944 126,57.5C 126.667,61.1667 126.667,64.8333 126,68.5C 125.617,69.056 125.117,69.3893 124.5,69.5C 125.833,65.1667 125.833,60.8333 124.5,56.5 Z"/></g>
<g><path style="opacity:0.004" fill="#262626" d="M 321.5,60.5 C 324.548,60.494 325.048,61.494 323,63.5C 321.961,62.7562 321.461,61.7562 321.5,60.5 Z"/></g>
<g><path style="opacity:0.004" fill="#1b1c1b" d="M 137.5,63.5 C 144.155,64.1541 144.655,65.4875 139,67.5C 138.556,72.1125 136.056,74.4458 131.5,74.5C 131.5,71.1667 131.5,67.8333 131.5,64.5C 133.735,64.7947 135.735,64.4614 137.5,63.5 Z"/></g>
<g><path style="opacity:0.004" fill="#212121" d="M 255.5,63.5 C 256.88,63.9623 257.547,64.9623 257.5,66.5C 255.961,70.709 254.127,74.709 252,78.5C 249.234,72.4786 250.4,67.4786 255.5,63.5 Z"/></g>
<g><path style="opacity:0.353" fill="#464646" d="M 381.5,62.5 C 381.027,63.9063 380.027,64.573 378.5,64.5C 378.973,63.0937 379.973,62.427 381.5,62.5 Z"/></g>
<g><path style="opacity:0.58" fill="#585858" d="M 234.5,61.5 C 233.415,63.5869 231.749,64.9202 229.5,65.5C 230.585,63.4131 232.251,62.0798 234.5,61.5 Z"/></g>
<g><path style="opacity:0.004" fill="#101010" d="M -0.5,65.5 C 1.29585,66.7927 2.96252,68.2927 4.5,70C 4.26424,71.4509 4.26424,72.9509 4.5,74.5C 1.97968,78.9394 1.47968,83.6061 3,88.5C 7.10941,88.5291 8.94274,86.5291 8.5,82.5C 12.1273,84.098 13.1273,86.2647 11.5,89C 12.8333,90.3333 14.1667,91.6667 15.5,93C 13.0882,94.836 13.4215,96.336 16.5,97.5C 17.0888,100.793 17.0888,104.293 16.5,108C 17.7717,109.307 18.7717,110.807 19.5,112.5C 21.0709,113.309 22.7376,113.643 24.5,113.5C 25.6253,115.129 26.9586,116.629 28.5,118C 27.944,118.383 27.6107,118.883 27.5,119.5C 26.9859,120.625 26.6526,121.791 26.5,123C 28.3615,124.028 29.6948,125.528 30.5,127.5C 31.7287,128.281 33.062,128.781 34.5,129C 31.8165,131.122 32.1499,132.622 35.5,133.5C 36.8333,134.5 38.1667,135.5 39.5,136.5C 39.5,136.833 39.5,137.167 39.5,137.5C 38.1667,137.833 38.1667,138.167 39.5,138.5C 39.5,138.833 39.5,139.167 39.5,139.5C 38.4265,140.251 38.2599,141.251 39,142.5C 40.0113,141.663 41.1779,141.33 42.5,141.5C 41.5291,142.962 41.8624,144.295 43.5,145.5C 42.1667,145.833 42.1667,146.167 43.5,146.5C 44.5981,147.397 44.5981,148.23 43.5,149C 44.0442,149.717 44.7109,150.217 45.5,150.5C 46.9032,153.3 45.9032,154.8 42.5,155C 46.1207,157.09 49.6207,156.923 53,154.5C 53.6667,155.167 53.6667,155.833 53,156.5C 45.5352,159.271 45.7019,161.104 53.5,162C 42.7939,168.702 33.2939,176.869 25,186.5C 23.21,190.013 23.71,193.346 26.5,196.5C 28.5286,197.844 30.5286,199.177 32.5,200.5C 30.1404,194.566 29.9737,188.566 32,182.5C 32.8159,181.177 33.9826,180.511 35.5,180.5C 29.0589,191.187 31.3923,199.52 42.5,205.5C 44.2915,205.366 45.9582,205.699 47.5,206.5C 47.8333,207.833 48.1667,207.833 48.5,206.5C 58.3938,207.026 67.7271,205.026 76.5,200.5C 76.8333,200.5 77.1667,200.5 77.5,200.5C 77.8333,201.833 78.1667,201.833 78.5,200.5C 79.1667,200.167 79.8333,199.833 80.5,199.5C 81.2389,199.369 81.9056,199.536 82.5,200C 81.2617,200.69 81.2617,201.19 82.5,201.5C 82.3893,202.117 82.056,202.617 81.5,203C 84.7025,206.371 88.0359,209.538 91.5,212.5C 92.5,214.167 93.8333,215.5 95.5,216.5C 96.2899,217.794 97.2899,218.961 98.5,220C 98.1667,221 97.8333,222 97.5,223C 98.7101,224.039 99.7101,225.206 100.5,226.5C 79.1894,225.713 57.5227,225.546 35.5,226C 32.1667,226.333 28.8333,226.667 25.5,227C 26.056,227.383 26.3893,227.883 26.5,228.5C 17.5,228.5 8.5,228.5 -0.5,228.5C -0.5,216.833 -0.5,205.167 -0.5,193.5C 0.0731381,200.426 0.906471,207.426 2,214.5C 2.41395,214.043 2.91395,213.709 3.5,213.5C 6.76195,196.858 6.76195,180.191 3.5,163.5C 3.91053,157.804 4.57719,151.804 5.5,145.5C 5.95375,143.306 6.95375,141.473 8.5,140C 8.17231,137.975 8.00564,135.809 8,133.5C 6.64387,132.62 5.14387,132.286 3.5,132.5C 3.38845,126.609 5.05512,121.443 8.5,117C 8.00928,111.87 7.67595,106.37 7.5,100.5C 5.01945,100.323 3.18612,101.323 2,103.5C 1.69223,111.181 1.19223,118.848 0.5,126.5C 0.226662,136.7 0.559995,147.033 1.5,157.5C 1.5411,162.079 0.874434,166.412 -0.5,170.5C -0.5,135.5 -0.5,100.5 -0.5,65.5 Z M 15.5,121.5 C 22.775,123.198 25.1084,127.698 22.5,135C 23.2846,136.951 24.2846,138.785 25.5,140.5C 22.7185,141.952 20.2185,141.619 18,139.5C 17.1628,137.649 16.3295,135.816 15.5,134C 14.8788,131.502 15.5455,129.168 17.5,127C 16.536,125.275 15.8693,123.441 15.5,121.5 Z M 29.5,153.5 C 30.2341,154.708 30.5674,156.041 30.5,157.5C 31.675,157.281 32.675,157.614 33.5,158.5C 33.1667,158.833 32.8333,159.167 32.5,159.5C 30.9017,158.515 29.235,158.349 27.5,159C 28.6226,160.044 29.9559,160.71 31.5,161C 28.4715,161.539 25.4715,162.206 22.5,163C 23.6034,164.68 23.2701,166.18 21.5,167.5C 19.2581,169.539 16.7581,171.205 14,172.5C 13.8849,174.107 14.3849,175.607 15.5,177C 14.1843,181.31 12.1843,181.643 9.5,178C 10.8333,176 10.8333,174 9.5,172C 10.4503,169.09 12.4503,167.923 15.5,168.5C 15.6646,165.482 15.498,162.482 15,159.5C 12.1768,156.983 12.0102,154.816 14.5,153C 14.152,150.945 14.8186,148.945 16.5,147C 15.4829,145.951 15.3162,144.784 16,143.5C 16.6667,142.167 17.3333,142.167 18,143.5C 18.2734,150.941 22.1067,154.274 29.5,153.5 Z M 33.5,150.5 C 37.1331,150.443 37.2998,151.443 34,153.5C 33.5172,152.552 33.3505,151.552 33.5,150.5 Z M 35.5,165.5 C 37.5,165.5 39.5,165.5 41.5,165.5C 41.5,166.5 41.5,167.5 41.5,168.5C 39.1432,168.663 36.8098,168.497 34.5,168C 35.2524,167.329 35.5858,166.496 35.5,165.5 Z M 11.5,181.5 C 12.8734,181.343 14.2068,181.51 15.5,182C 13.6992,182.317 13.3659,182.984 14.5,184C 13.552,184.483 12.552,184.649 11.5,184.5C 11.5,183.5 11.5,182.5 11.5,181.5 Z M 9.5,190.5 C 11.5,190.5 13.5,190.5 15.5,190.5C 14.9232,193.55 16.0899,195.55 19,196.5C 19.346,198.218 19.846,199.885 20.5,201.5C 20.1667,201.833 19.8333,202.167 19.5,202.5C 16.9713,199.73 14.638,199.896 12.5,203C 14.9756,206.03 17.9756,208.363 21.5,210C 20.3595,210.741 20.3595,211.575 21.5,212.5C 20.5,213.5 19.5,214.5 18.5,215.5C 16.8363,213.005 14.6696,211.005 12,209.5C 10.4178,207.376 10.2512,205.21 11.5,203C 9.69692,202.363 8.36359,201.197 7.5,199.5C 7.86483,196.702 8.5315,193.702 9.5,190.5 Z M 32.5,200.5 C 34.5441,201.031 36.2107,202.198 37.5,204C 34.9302,204.281 33.2635,203.114 32.5,200.5 Z M 23.5,201.5 C 25.0481,201.821 25.7148,202.821 25.5,204.5C 21.6266,204.666 20.9599,203.666 23.5,201.5 Z M 30.5,205.5 C 35.1401,207.149 39.8068,208.816 44.5,210.5C 42.0425,211.124 40.3758,212.624 39.5,215C 40.5,215.333 41.5,215.667 42.5,216C 38.3749,216.854 34.3749,216.52 30.5,215C 28.8753,214.147 28.5419,213.147 29.5,212C 31.3774,211.424 33.2108,211.591 35,212.5C 36.2798,212.387 37.1131,211.72 37.5,210.5C 35.5,209.667 33.5,208.833 31.5,208C 30.7476,207.329 30.4142,206.496 30.5,205.5 Z M 86.5,219.5 C 88.9752,219.747 88.9752,220.413 86.5,221.5C 85.537,221.03 85.537,220.363 86.5,219.5 Z"/></g>
<g><path style="opacity:0.082" fill="#353535" d="M 378.5,64.5 C 376.371,66.9501 373.704,68.6167 370.5,69.5C 372.629,67.0499 375.296,65.3833 378.5,64.5 Z"/></g>
<g><path style="opacity:0.388" fill="#636363" d="M 229.5,65.5 C 229.027,66.9063 228.027,67.573 226.5,67.5C 226.973,66.0937 227.973,65.427 229.5,65.5 Z"/></g>
<g><path style="opacity:0.263" fill="#282828" d="M 264.5,61.5 C 266.68,63.0313 267.68,65.1979 267.5,68C 267.548,71.0436 266.548,73.5436 264.5,75.5C 265.059,73.3208 265.726,71.1542 266.5,69C 265.751,66.5034 265.084,64.0034 264.5,61.5 Z"/></g>
<g><path style="opacity:0.004" fill="#1b1c1b" d="M 155.5,67.5 C 157.337,67.6395 157.67,68.3061 156.5,69.5C 155.702,69.0431 155.369,68.3764 155.5,67.5 Z"/></g>
<g><path style="opacity:0.004" fill="#161716" d="M 101.5,68.5 C 103.011,69.9575 104.011,71.7908 104.5,74C 102.984,75.897 102.317,78.0637 102.5,80.5C 101.178,80.33 100.011,80.6634 99,81.5C 98.86,76.9804 99.6933,72.6471 101.5,68.5 Z"/></g>
<g><path style="opacity:0.592" fill="#595959" d="M 226.5,67.5 C 226.027,68.9063 225.027,69.573 223.5,69.5C 223.973,68.0937 224.973,67.427 226.5,67.5 Z"/></g>
<g><path style="opacity:0.066" fill="#212121" d="M 124.5,69.5 C 124.631,72.3667 123.297,74.0334 120.5,74.5C 121.864,72.8089 123.197,71.1423 124.5,69.5 Z"/></g>
<g><path style="opacity:0.037" fill="#2b2b2b" d="M 223.5,69.5 C 222.564,70.9744 221.23,71.9744 219.5,72.5C 220.035,70.5544 221.368,69.5544 223.5,69.5 Z"/></g>
<g><path style="opacity:0.029" fill="#313131" d="M 370.5,69.5 C 368.025,72.2411 365.025,74.2411 361.5,75.5C 363.951,72.7232 366.951,70.7232 370.5,69.5 Z"/></g>
<g><path style="opacity:0.034" fill="#2b2b2b" d="M 262.5,47.5 C 270.178,49.2751 275.345,53.9417 278,61.5C 279.509,68.7935 278.176,75.4602 274,81.5C 273.329,82.2524 272.496,82.5858 271.5,82.5C 281.79,67.4135 278.79,55.7468 262.5,47.5 Z"/></g>
<g><path style="opacity:0.063" fill="#222222" d="M 217.5,73.5 C 217.027,74.9063 216.027,75.573 214.5,75.5C 214.973,74.0937 215.973,73.427 217.5,73.5 Z"/></g>
<g><path style="opacity:0.004" fill="#191919" d="M 113.5,66.5 C 108.599,72.953 110.266,75.953 118.5,75.5C 117.048,76.3019 115.382,76.8019 113.5,77C 114.167,77.3333 114.833,77.6667 115.5,78C 112.883,78.8215 110.216,79.3215 107.5,79.5C 107.5,78.5 107.5,77.5 107.5,76.5C 108.873,76.6567 110.207,76.49 111.5,76C 108.736,72.2119 109.403,69.0452 113.5,66.5 Z"/></g>
<g><path style="opacity:0.043" fill="#373737" d="M 361.5,75.5 C 359.777,77.2181 357.777,78.5514 355.5,79.5C 356.708,76.9558 358.708,75.6225 361.5,75.5 Z"/></g>
<g><path style="opacity:0.584" fill="#636363" d="M 264.5,75.5 C 264.144,77.1898 263.144,78.1898 261.5,78.5C 261.856,76.8102 262.856,75.8102 264.5,75.5 Z"/></g>
<g><path style="opacity:0.275" fill="#3d3d3d" d="M 211.5,77.5 C 210.833,78.8333 209.833,79.8333 208.5,80.5C 208.5,78.5 209.5,77.5 211.5,77.5 Z"/></g>
<g><path style="opacity:0.033" fill="#262626" d="M 227.5,78.5 C 226.738,80.2624 225.404,81.2624 223.5,81.5C 224.262,79.7376 225.596,78.7376 227.5,78.5 Z"/></g>
<g><path style="opacity:0.004" fill="#222222" d="M 281.5,80.5 C 283.645,80.7377 285.312,81.7377 286.5,83.5C 283.441,85.6532 280.441,87.9865 277.5,90.5C 276.614,91.325 276.281,92.325 276.5,93.5C 275.127,93.3433 273.793,93.51 272.5,94C 275.167,94.6667 275.167,95.3333 272.5,96C 273.973,96.7096 274.64,97.8762 274.5,99.5C 272.94,99.4809 271.44,99.1476 270,98.5C 268.188,96.6884 266.355,94.8551 264.5,93C 267.536,90.9937 270.869,90.1604 274.5,90.5C 274.351,89.448 274.517,88.448 275,87.5C 277.826,85.694 279.992,83.3607 281.5,80.5 Z"/></g>
<g><path style="opacity:0.369" fill="#585858" d="M 207.5,80.5 C 207.027,81.9063 206.027,82.573 204.5,82.5C 204.973,81.0937 205.973,80.427 207.5,80.5 Z"/></g>
<g><path style="opacity:0.05" fill="#373737" d="M 261.5,78.5 C 260.85,80.4352 260.517,82.4352 260.5,84.5C 257.868,82.3011 258.201,80.3011 261.5,78.5 Z"/></g>
<g><path style="opacity:0.004" fill="#292929" d="M 223.5,81.5 C 221.049,84.2768 218.049,86.2768 214.5,87.5C 216.975,84.7589 219.975,82.7589 223.5,81.5 Z"/></g>
<g><path style="opacity:0.082" fill="#2b2b2b" d="M 351.5,81.5 C 350.341,83.2503 348.674,84.2503 346.5,84.5C 347.659,82.7497 349.326,81.7497 351.5,81.5 Z"/></g>
<g><path style="opacity:0.012" fill="#2d2d2d" d="M 271.5,82.5 C 270.341,84.2503 268.674,85.2503 266.5,85.5C 267.659,83.7497 269.326,82.7497 271.5,82.5 Z"/></g>
<g><path style="opacity:0.878" fill="#7b7b7b" d="M 204.5,82.5 C 202.25,85.5886 199.25,87.5886 195.5,88.5C 198.218,86.1399 201.218,84.1399 204.5,82.5 Z"/></g>
<g><path style="opacity:0.016" fill="#282828" d="M 260.5,84.5 C 262.435,85.1495 264.435,85.4828 266.5,85.5C 265.903,86.1386 265.07,86.472 264,86.5C 262.301,86.6134 261.134,85.9468 260.5,84.5 Z"/></g>
<g><path style="opacity:0.165" fill="#3c3c3c" d="M 346.5,84.5 C 345.341,86.2503 343.674,87.2503 341.5,87.5C 342.659,85.7497 344.326,84.7497 346.5,84.5 Z"/></g>
<g><path style="opacity:0.055" fill="#2c2c2c" d="M 84.5,63.5 C 84.1997,70.8956 84.6997,78.229 86,85.5C 90.5414,98.125 94.8748,110.792 99,123.5C 99.6667,128.167 99.6667,132.833 99,137.5C 98.3028,139.584 97.1361,141.251 95.5,142.5C 98.8635,135.779 99.1969,128.945 96.5,122C 96.8333,121.667 97.1667,121.333 97.5,121C 90.5693,105.778 85.5693,89.9442 82.5,73.5C 82.5504,69.9137 83.217,66.5804 84.5,63.5 Z"/></g>
<g><path style="opacity:0.004" fill="#1f201f" d="M 224.5,86.5 C 226.973,86.9473 227.14,87.9473 225,89.5C 224.517,88.552 224.351,87.552 224.5,86.5 Z"/></g>
<g><path style="opacity:0.035" fill="#2c2c2c" d="M 214.5,87.5 C 212.704,89.9 210.37,91.5667 207.5,92.5C 209.296,90.1 211.63,88.4333 214.5,87.5 Z"/></g>
<g><path style="opacity:0.267" fill="#4a4a4a" d="M 195.5,88.5 C 195.027,89.9063 194.027,90.573 192.5,90.5C 192.973,89.0937 193.973,88.427 195.5,88.5 Z"/></g>
<g><path style="opacity:0.541" fill="#4d4d4d" d="M 339.5,88.5 C 339.027,89.9063 338.027,90.573 336.5,90.5C 336.973,89.0937 337.973,88.427 339.5,88.5 Z"/></g>
<g><path style="opacity:0.573" fill="#494949" d="M 192.5,90.5 C 192.027,91.9063 191.027,92.573 189.5,92.5C 189.973,91.0937 190.973,90.427 192.5,90.5 Z"/></g>
<g><path style="opacity:0.471" fill="#4f4f4f" d="M 189.5,92.5 C 189.027,93.9063 188.027,94.573 186.5,94.5C 186.973,93.0937 187.973,92.427 189.5,92.5 Z"/></g>
<g><path style="opacity:0.078" fill="#202020" d="M 207.5,92.5 C 207.027,93.9063 206.027,94.573 204.5,94.5C 204.973,93.0937 205.973,92.427 207.5,92.5 Z"/></g>
<g><path style="opacity:0.004" fill="#1f201f" d="M 257.5,93.5 C 258.5,93.5 259.5,93.5 260.5,93.5C 260.5,94.5 260.5,95.5 260.5,96.5C 259.5,96.5 258.5,96.5 257.5,96.5C 257.5,95.5 257.5,94.5 257.5,93.5 Z"/></g>
<g><path style="opacity:0.004" fill="#1d1d1d" d="M 216.5,92.5 C 218.199,92.3398 219.866,92.5065 221.5,93C 219.697,93.6368 218.364,94.8035 217.5,96.5C 209.954,97.54 209.621,96.2067 216.5,92.5 Z"/></g>
<g><path style="opacity:0.541" fill="#4c4c4c" d="M 330.5,93.5 C 330.027,94.9063 329.027,95.573 327.5,95.5C 327.973,94.0937 328.973,93.427 330.5,93.5 Z"/></g>
<g><path style="opacity:0.071" fill="#282828" d="M 184.5,95.5 C 184.167,96.5 183.5,97.1667 182.5,97.5C 182.5,96.1667 183.167,95.5 184.5,95.5 Z"/></g>
<g><path style="opacity:0.004" fill="#212121" d="M 377.5,114.5 C 386.346,119.945 395.513,125.945 405,132.5C 405.333,132.167 405.667,131.833 406,131.5C 407.333,132.833 408.667,134.167 410,135.5C 410.333,135.167 410.667,134.833 411,134.5C 412.192,136.65 413.692,137.317 415.5,136.5C 415.5,167.167 415.5,197.833 415.5,228.5C 401.167,228.5 386.833,228.5 372.5,228.5C 370.873,226.37 369.04,224.37 367,222.5C 366.333,223.167 365.667,223.833 365,224.5C 363,222.5 361,220.5 359,218.5C 358.333,219.167 357.667,219.833 357,220.5C 354.667,218.167 352.333,215.833 350,213.5C 349,213.833 348,214.167 347,214.5C 343,210.5 339,206.5 335,202.5C 334.333,203.167 333.667,203.833 333,204.5C 330.667,202.167 328.333,199.833 326,197.5C 325.667,197.833 325.333,198.167 325,198.5C 323.667,197.167 322.333,195.833 321,194.5C 319.951,195.517 318.784,195.684 317.5,195C 317.833,194 318.167,193 318.5,192C 317.251,190.176 316.085,190.343 315,192.5C 311.898,190.147 309.898,187.481 309,184.5C 308.333,185.167 307.667,185.833 307,186.5C 303.629,183.297 300.462,179.964 297.5,176.5C 298.473,175.209 299.473,175.209 300.5,176.5C 301.807,175.184 303.307,174.184 305,173.5C 308.596,175.135 311.929,177.135 315,179.5C 316.835,177.273 316.335,175.44 313.5,174C 311.744,173.798 310.078,173.298 308.5,172.5C 308.919,171.328 309.585,170.328 310.5,169.5C 312.173,171.086 314.173,171.753 316.5,171.5C 316.01,169.052 316.843,167.385 319,166.5C 320.823,167.651 322.656,168.818 324.5,170C 326.167,170.667 327.833,170.667 329.5,170C 325.132,165.967 321.132,161.634 317.5,157C 318.025,156.308 318.692,155.808 319.5,155.5C 321.54,157.371 323.374,159.371 325,161.5C 327.575,159.679 330.241,159.346 333,160.5C 333.772,159.151 334.939,158.318 336.5,158C 333.479,156.461 332.146,153.961 332.5,150.5C 333.959,150.567 335.292,150.234 336.5,149.5C 336.5,148.5 336.5,147.5 336.5,146.5C 332.249,145.73 329.749,147.397 329,151.5C 328.5,151 328,150.5 327.5,150C 328.264,147.931 328.764,145.764 329,143.5C 332.736,141.557 333.236,139.057 330.5,136C 328.5,135.333 326.5,135.333 324.5,136C 320.399,138.628 316.399,141.461 312.5,144.5C 308.508,141.508 304.842,138.174 301.5,134.5C 301.808,133.692 302.308,133.025 303,132.5C 305.574,135.259 307.74,134.926 309.5,131.5C 311.075,134.368 313.741,134.868 317.5,133C 318.412,130.512 317.412,128.845 314.5,128C 317.472,124.598 320.472,124.264 323.5,127C 330.377,129.249 332.711,127.082 330.5,120.5C 333.792,120.88 336.125,119.547 337.5,116.5C 335.997,114.578 333.997,113.412 331.5,113C 330.167,112.333 330.167,111.667 331.5,111C 341.665,105.51 351.498,99.6763 361,93.5C 363.803,94.1086 364.803,95.7753 364,98.5C 363.667,98.1667 363.333,97.8333 363,97.5C 356.549,101.971 350.049,106.304 343.5,110.5C 349.097,114.784 354.097,114.284 358.5,109C 360.635,108.365 362.635,108.699 364.5,110C 361.84,111.827 359.506,113.994 357.5,116.5C 359.471,118.58 360.637,120.913 361,123.5C 357.127,123.579 353.294,124.079 349.5,125C 350.93,127.809 352.93,130.143 355.5,132C 351.213,135.511 351.879,136.844 357.5,136C 359.364,133.384 361.697,132.55 364.5,133.5C 365.685,138.579 368.685,141.913 373.5,143.5C 374.192,141.665 373.858,139.832 372.5,138C 373.451,137.282 373.617,136.449 373,135.5C 370.771,132.636 367.937,130.636 364.5,129.5C 365.167,129.167 365.833,128.833 366.5,128.5C 368.761,129.648 371.095,130.148 373.5,130C 372.687,128.686 371.687,127.519 370.5,126.5C 373.027,125.786 375.527,125.12 378,124.5C 378.273,122.899 378.773,121.399 379.5,120C 376.59,118.827 375.923,116.994 377.5,114.5 Z M 337.5,131.5 C 340.674,131.952 341.007,132.952 338.5,134.5C 336.481,133.867 336.147,132.867 337.5,131.5 Z M 340.5,142.5 C 342.337,142.639 342.67,143.306 341.5,144.5C 340.702,144.043 340.369,143.376 340.5,142.5 Z M 336.5,149.5 C 339.603,148.203 339.937,148.536 337.5,150.5C 336.893,150.376 336.56,150.043 336.5,149.5 Z M 332.5,161.5 C 333.837,162.315 334.837,163.482 335.5,165C 333.298,167.153 331.631,166.819 330.5,164C 331.056,162.989 331.722,162.156 332.5,161.5 Z"/></g>
<g><path style="opacity:0.024" fill="#252525" d="M 201.5,96.5 C 200.198,98.8218 198.198,100.155 195.5,100.5C 197.147,98.6736 199.147,97.3403 201.5,96.5 Z"/></g>
<g><path style="opacity:0.004" fill="#161716" d="M 119.5,98.5 C 123.99,97.9027 126.99,99.5694 128.5,103.5C 125.593,103.575 122.927,104.409 120.5,106C 123.167,106.667 123.167,107.333 120.5,108C 121.308,108.308 121.975,108.808 122.5,109.5C 121.965,111.101 120.965,111.601 119.5,111C 117.545,107.862 118.545,105.528 122.5,104C 120.393,102.736 119.393,100.903 119.5,98.5 Z"/></g>
<g><path style="opacity:0.298" fill="#3c3c3c" d="M 181.5,97.5 C 181.027,98.9063 180.027,99.573 178.5,99.5C 178.973,98.0937 179.973,97.427 181.5,97.5 Z"/></g>
<g><path style="opacity:0.043" fill="#2a2a2a" d="M 251.5,59.5 C 248.423,62.9873 246.423,66.9873 245.5,71.5C 248.648,88.4419 254.482,104.442 263,119.5C 264.87,121.219 267.037,122.219 269.5,122.5C 265.946,124.202 263.113,123.202 261,119.5C 255.221,108.162 250.221,96.4949 246,84.5C 244.529,78.5692 244.196,72.5692 245,66.5C 246.012,62.9916 248.178,60.6582 251.5,59.5 Z"/></g>
<g><path style="opacity:0.224" fill="#383838" d="M 321.5,98.5 C 320.486,99.6737 319.153,100.34 317.5,100.5C 318.287,98.8958 319.62,98.2291 321.5,98.5 Z"/></g>
<g><path style="opacity:0.38" fill="#383838" d="M 176.5,100.5 C 176.027,101.906 175.027,102.573 173.5,102.5C 173.973,101.094 174.973,100.427 176.5,100.5 Z"/></g>
<g><path style="opacity:0.063" fill="#212121" d="M 195.5,100.5 C 195.027,101.906 194.027,102.573 192.5,102.5C 192.973,101.094 193.973,100.427 195.5,100.5 Z"/></g>
<g><path style="opacity:0.004" fill="#212121" d="M 274.5,102.5 C 274.56,101.957 274.893,101.624 275.5,101.5C 278.177,102.074 280.843,102.741 283.5,103.5C 282.652,104.991 281.319,105.658 279.5,105.5C 277.307,105.229 275.641,104.229 274.5,102.5 Z"/></g>
<g><path style="opacity:0.184" fill="#303030" d="M 317.5,100.5 C 316.486,101.674 315.153,102.34 313.5,102.5C 314.287,100.896 315.62,100.229 317.5,100.5 Z"/></g>
<g><path style="opacity:0.004" fill="#1c1c1c" d="M 221.5,101.5 C 223.28,102.99 223.946,104.99 223.5,107.5C 218.917,106.985 218.251,104.985 221.5,101.5 Z"/></g>
<g><path style="opacity:0.061" fill="#232323" d="M 98.5,59.5 C 95.8873,64.489 95.054,69.8223 96,75.5C 99.7407,91.8007 104.407,107.801 110,123.5C 111.45,130.796 115.617,133.129 122.5,130.5C 116.193,134.29 111.693,132.623 109,125.5C 103.802,109.572 98.8019,93.5718 94,77.5C 93.3333,73.5 93.3333,69.5 94,65.5C 94.7918,62.8936 96.2918,60.8936 98.5,59.5 Z"/></g>
<g><path style="opacity:0.025" fill="#2d2d2d" d="M 192.5,102.5 C 191.341,104.25 189.674,105.25 187.5,105.5C 188.659,103.75 190.326,102.75 192.5,102.5 Z"/></g>
<g><path style="opacity:0.302" fill="#383838" d="M 313.5,102.5 C 312.486,103.674 311.153,104.34 309.5,104.5C 310.287,102.896 311.62,102.229 313.5,102.5 Z"/></g>
<g><path style="opacity:0.529" fill="#383838" d="M 171.5,103.5 C 171.027,104.906 170.027,105.573 168.5,105.5C 168.973,104.094 169.973,103.427 171.5,103.5 Z"/></g>
<g><path style="opacity:0.004" fill="#2d2d2d" d="M 239.5,137.5 C 242.165,134.665 244.665,131.665 247,128.5C 248.213,125.232 248.546,121.899 248,118.5C 242.054,105.353 236.721,92.0197 232,78.5C 230.586,77.5868 229.086,77.5868 227.5,78.5C 229.355,76.9669 231.188,75.3003 233,73.5C 236.925,88.3512 242.258,102.685 249,116.5C 251.108,126.047 247.941,133.047 239.5,137.5 Z"/></g>
<g><path style="opacity:0.498" fill="#565656" d="M 168.5,105.5 C 168.027,106.906 167.027,107.573 165.5,107.5C 165.973,106.094 166.973,105.427 168.5,105.5 Z"/></g>
<g><path style="opacity:0.065" fill="#232323" d="M 187.5,105.5 C 187.027,106.906 186.027,107.573 184.5,107.5C 184.973,106.094 185.973,105.427 187.5,105.5 Z"/></g>
<g><path style="opacity:0.4" fill="#414141" d="M 307.5,105.5 C 306.486,106.674 305.153,107.34 303.5,107.5C 304.287,105.896 305.62,105.229 307.5,105.5 Z"/></g>
<g><path style="opacity:0.004" fill="#1c1c1c" d="M 211.5,107.5 C 212.5,107.5 213.5,107.5 214.5,107.5C 214.5,108.5 214.5,109.5 214.5,110.5C 218.536,112.303 222.036,111.637 225,108.5C 232.278,110.506 236.445,115.339 237.5,123C 237.025,126.142 235.192,127.975 232,128.5C 231.023,131.259 231.856,133.259 234.5,134.5C 234.167,134.833 233.833,135.167 233.5,135.5C 227.549,135.244 221.549,135.577 215.5,136.5C 214.746,140.497 212.246,142.83 208,143.5C 202.386,141.684 196.886,139.684 191.5,137.5C 191.297,135.362 190.297,133.695 188.5,132.5C 189.908,131.757 191.241,130.923 192.5,130C 190.905,130.617 189.572,130.284 188.5,129C 190.769,128.242 192.936,128.409 195,129.5C 197.913,126.913 201.08,124.746 204.5,123C 206.235,122.349 207.902,122.515 209.5,123.5C 210.88,122.024 212.547,121.024 214.5,120.5C 215.386,119.675 215.719,118.675 215.5,117.5C 212.724,117.911 212.057,117.078 213.5,115C 211.448,112.621 210.781,110.121 211.5,107.5 Z M 202.5,134.5 C 201.136,138.544 202.636,139.544 207,137.5C 207.617,136.551 207.451,135.718 206.5,135C 205.207,134.51 203.873,134.343 202.5,134.5 Z"/></g>
<g><path style="opacity:0.035" fill="#2a2a2a" d="M 302.5,107.5 C 300.819,109.008 298.819,110.008 296.5,110.5C 297.911,108.461 299.911,107.461 302.5,107.5 Z"/></g>
<g><path style="opacity:0.173" fill="#2f2f2f" d="M 165.5,107.5 C 164.101,108.89 162.434,109.89 160.5,110.5C 161.401,108.273 163.067,107.273 165.5,107.5 Z"/></g>
<g><path style="opacity:0.082" fill="#2f2f2f" d="M 184.5,107.5 C 183.599,109.727 181.933,110.727 179.5,110.5C 180.659,108.75 182.326,107.75 184.5,107.5 Z"/></g>
<g><path style="opacity:0.065" fill="#303030" d="M 296.5,110.5 C 295.22,111.931 293.553,112.598 291.5,112.5C 292.78,111.069 294.447,110.402 296.5,110.5 Z"/></g>
<g><path style="opacity:0.271" fill="#272727" d="M 160.5,110.5 C 159.486,111.674 158.153,112.34 156.5,112.5C 157.287,110.896 158.62,110.229 160.5,110.5 Z"/></g>
<g><path style="opacity:0.067" fill="#222222" d="M 179.5,110.5 C 179.027,111.906 178.027,112.573 176.5,112.5C 176.973,111.094 177.973,110.427 179.5,110.5 Z"/></g>
<g><path style="opacity:0.004" fill="#191919" d="M 139.5,111.5 C 140.043,111.56 140.376,111.893 140.5,112.5C 139.635,113.583 138.635,113.749 137.5,113C 138.416,112.722 139.082,112.222 139.5,111.5 Z"/></g>
<g><path style="opacity:0.004" fill="#2b2b2b" d="M 353.5,92.5 C 352.284,94.4509 350.618,95.9509 348.5,97C 348.833,97.3333 349.167,97.6667 349.5,98C 348.451,98.4922 347.451,98.3256 346.5,97.5C 335.056,104.555 323.056,110.555 310.5,115.5C 324.984,108.091 339.318,100.425 353.5,92.5 Z"/></g>
<g><path style="opacity:0.071" fill="#292929" d="M 156.5,112.5 C 155.341,114.25 153.674,115.25 151.5,115.5C 152.659,113.75 154.326,112.75 156.5,112.5 Z"/></g>
<g><path style="opacity:0.057" fill="#2c2c2c" d="M 176.5,112.5 C 175.341,114.25 173.674,115.25 171.5,115.5C 172.659,113.75 174.326,112.75 176.5,112.5 Z"/></g>
<g><path style="opacity:0.251" fill="#2b2b2b" d="M 291.5,112.5 C 290.486,113.674 289.153,114.34 287.5,114.5C 288.287,112.896 289.62,112.229 291.5,112.5 Z"/></g>
<g><path style="opacity:0.067" fill="#212121" d="M 171.5,115.5 C 171.027,116.906 170.027,117.573 168.5,117.5C 168.973,116.094 169.973,115.427 171.5,115.5 Z"/></g>
<g><path style="opacity:0.004" fill="#1f201f" d="M 267.5,116.5 C 269.983,116.73 270.483,117.397 269,118.5C 267.97,118.164 267.47,117.497 267.5,116.5 Z"/></g>
<g><path style="opacity:0.835" fill="#757575" d="M 285.5,115.5 C 284.365,117.213 282.698,117.88 280.5,117.5C 281.78,116.069 283.447,115.402 285.5,115.5 Z"/></g>
<g><path style="opacity:0.045" fill="#282828" d="M 149.5,116.5 C 148.713,118.104 147.38,118.771 145.5,118.5C 146.514,117.326 147.847,116.66 149.5,116.5 Z"/></g>
<g><path style="opacity:0.035" fill="#383838" d="M 280.5,117.5 C 278.819,119.008 276.819,120.008 274.5,120.5C 275.911,118.461 277.911,117.461 280.5,117.5 Z"/></g>
<g><path style="opacity:0.537" fill="#424242" d="M 145.5,118.5 C 145.027,119.906 144.027,120.573 142.5,120.5C 142.973,119.094 143.973,118.427 145.5,118.5 Z"/></g>
<g><path style="opacity:0.004" fill="#2b2b2b" d="M 310.5,115.5 C 311.535,118.373 310.535,119.04 307.5,117.5C 305.021,119.076 302.354,120.076 299.5,120.5C 302.751,118.043 306.418,116.376 310.5,115.5 Z"/></g>
<g><path style="opacity:0.063" fill="#313131" d="M 166.5,118.5 C 164.664,120.588 162.331,121.921 159.5,122.5C 161.336,120.412 163.669,119.079 166.5,118.5 Z"/></g>
<g><path style="opacity:0.298" fill="#3c3c3c" d="M 273.5,120.5 C 272.486,121.674 271.153,122.34 269.5,122.5C 270.287,120.896 271.62,120.229 273.5,120.5 Z"/></g>
<g><path style="opacity:0.063" fill="#333333" d="M 142.5,120.5 C 140.151,122.341 137.485,123.674 134.5,124.5C 136.579,122.127 139.246,120.794 142.5,120.5 Z"/></g>
<g><path style="opacity:0.082" fill="#2d2d2d" d="M 159.5,122.5 C 156.322,125.258 152.655,127.258 148.5,128.5C 151.678,125.742 155.345,123.742 159.5,122.5 Z"/></g>
<g><path style="opacity:0.004" fill="#252525" d="M 299.5,120.5 C 296.393,122.228 293.393,124.228 290.5,126.5C 289.549,125.674 288.549,125.508 287.5,126C 288.458,127.147 288.125,128.147 286.5,129C 284.444,129.311 282.444,129.811 280.5,130.5C 279.914,130.291 279.414,129.957 279,129.5C 277.007,130.914 274.84,131.914 272.5,132.5C 275.102,130.19 278.102,128.357 281.5,127C 287.497,124.724 293.497,122.557 299.5,120.5 Z"/></g>
<g><path style="opacity:0.004" fill="#141414" d="M 76.5,127.5 C 76.9169,126.876 77.5836,126.543 78.5,126.5C 80.4864,127.73 82.4864,129.064 84.5,130.5C 85.086,130.291 85.586,129.957 86,129.5C 87.1316,131.339 87.9649,133.339 88.5,135.5C 89.325,136.386 90.325,136.719 91.5,136.5C 91.3784,140.147 89.7118,142.981 86.5,145C 85.1667,145.667 83.8333,145.667 82.5,145C 83.731,143.817 83.731,142.651 82.5,141.5C 79.8875,143.987 76.7209,144.987 73,144.5C 65.6207,145.265 64.6207,143.265 70,138.5C 70.4935,136.866 70.6602,135.199 70.5,133.5C 69.1266,133.657 67.7932,133.49 66.5,133C 67.3664,128.912 69.6998,127.412 73.5,128.5C 73.2907,129.086 72.9574,129.586 72.5,130C 74.728,130.82 76.728,130.487 78.5,129C 77.9558,128.283 77.2891,127.783 76.5,127.5 Z"/></g>
<g><path style="opacity:0.004" fill="#1b1c1b" d="M 175.5,134.5 C 185.909,135.737 185.909,137.737 175.5,140.5C 171.928,138.671 171.928,136.671 175.5,134.5 Z"/></g>
<g><path style="opacity:0.024" fill="#282828" d="M 148.5,128.5 C 139.312,134.262 129.645,139.262 119.5,143.5C 128.688,137.738 138.355,132.738 148.5,128.5 Z"/></g>
<g><path style="opacity:0.004" fill="#202020" d="M 272.5,132.5 C 270.189,135.147 267.856,137.814 265.5,140.5C 267.896,142.844 269.896,142.344 271.5,139C 273.218,138.654 274.885,138.154 276.5,137.5C 276.306,138.93 276.306,140.43 276.5,142C 280.095,142.561 283.428,143.728 286.5,145.5C 287.865,143.14 289.865,141.473 292.5,140.5C 293.5,140.833 294.167,141.5 294.5,142.5C 293.352,144.149 292.019,145.649 290.5,147C 292.899,147.711 295.232,147.544 297.5,146.5C 298.424,148.39 299.757,149.89 301.5,151C 301.043,151.414 300.709,151.914 300.5,152.5C 296.489,153.031 292.656,154.031 289,155.5C 288.833,155.833 288.667,156.167 288.5,156.5C 290.766,157.432 292.766,158.766 294.5,160.5C 293.564,161.974 292.23,162.974 290.5,163.5C 289.304,163.154 289.304,162.654 290.5,162C 289.051,160.883 287.384,160.216 285.5,160C 284.803,156.593 282.97,155.426 280,156.5C 280.145,153.486 280.645,150.486 281.5,147.5C 279.08,147.292 276.747,147.626 274.5,148.5C 273.355,149.776 273.355,151.109 274.5,152.5C 268.452,154.295 265.452,151.962 265.5,145.5C 264.833,145.167 264.167,144.833 263.5,144.5C 261.244,148.754 259.077,153.088 257,157.5C 253.301,161.031 249.801,164.698 246.5,168.5C 245.833,168.167 245.167,167.833 244.5,167.5C 241.115,168.462 237.949,169.796 235,171.5C 234.312,172.332 234.479,172.998 235.5,173.5C 237.565,173.953 239.232,174.953 240.5,176.5C 236.797,177.388 233.131,177.055 229.5,175.5C 230.747,173.677 231.414,171.677 231.5,169.5C 229.901,169.768 228.568,169.434 227.5,168.5C 240.142,169.931 249.975,165.264 257,154.5C 259.331,145.028 264.498,137.695 272.5,132.5 Z"/></g>
<g><path style="opacity:0.247" fill="#393939" d="M 239.5,137.5 C 238.486,138.674 237.153,139.34 235.5,139.5C 236.287,137.896 237.62,137.229 239.5,137.5 Z"/></g>
<g><path style="opacity:0.4" fill="#535353" d="M 233.5,140.5 C 233.027,141.906 232.027,142.573 230.5,142.5C 230.973,141.094 231.973,140.427 233.5,140.5 Z"/></g>
<g><path style="opacity:0.004" fill="#161716" d="M 153.5,143.5 C 155.185,142.156 156.852,142.323 158.5,144C 156.735,144.64 155.068,144.473 153.5,143.5 Z"/></g>
<g><path style="opacity:0.004" fill="#131413" d="M 59.5,143.5 C 65.861,144.907 65.5276,146.24 58.5,147.5C 57.8333,147.167 57.1667,146.833 56.5,146.5C 57.3398,145.265 58.3398,144.265 59.5,143.5 Z"/></g>
<g><path style="opacity:0.004" fill="#161716" d="M 128.5,143.5 C 130.337,143.639 130.67,144.306 129.5,145.5C 128.702,145.043 128.369,144.376 128.5,143.5 Z"/></g>
<g><path style="opacity:0.392" fill="#5f5f5f" d="M 230.5,142.5 C 229.415,144.587 227.749,145.92 225.5,146.5C 226.585,144.413 228.251,143.08 230.5,142.5 Z"/></g>
<g><path style="opacity:0.094" fill="#2c2c2c" d="M 247.5,152.5 C 248.75,149.994 249.416,147.327 249.5,144.5C 246.673,144.584 244.006,145.25 241.5,146.5C 243.619,144.072 246.286,142.905 249.5,143C 251.133,146.715 250.466,149.882 247.5,152.5 Z"/></g>
<g><path style="opacity:0.408" fill="#494949" d="M 95.5,142.5 C 95.1436,144.19 94.1436,145.19 92.5,145.5C 92.8564,143.81 93.8564,142.81 95.5,142.5 Z"/></g>
<g><path style="opacity:0.349" fill="#3d3d3d" d="M 92.5,145.5 C 91.7377,147.262 90.4044,148.262 88.5,148.5C 89.2623,146.738 90.5956,145.738 92.5,145.5 Z"/></g>
<g><path style="opacity:0.084" fill="#242424" d="M 225.5,146.5 C 224.396,148.389 223.063,150.055 221.5,151.5C 221.67,148.796 223.003,147.129 225.5,146.5 Z"/></g>
<g><path style="opacity:0.004" fill="#1b1c1b" d="M 199.5,147.5 C 200.756,147.461 201.756,147.961 202.5,149C 200.833,151 199.167,151 197.5,149C 198.416,148.722 199.082,148.222 199.5,147.5 Z"/></g>
<g><path style="opacity:0.004" fill="#161616" d="M 119.5,143.5 C 116.169,147 113.002,150.666 110,154.5C 109.187,156.436 108.687,158.436 108.5,160.5C 109.873,160.657 111.207,160.49 112.5,160C 115.44,155.592 118.94,151.758 123,148.5C 127.346,149.719 127.513,151.553 123.5,154C 124.167,155.333 125.167,156.333 126.5,157C 126.167,157.333 125.833,157.667 125.5,158C 127.387,158.163 128.887,157.329 130,155.5C 131.319,157.25 131.819,159.25 131.5,161.5C 133.277,161.786 134.944,162.453 136.5,163.5C 138.833,163.167 139.167,162.167 137.5,160.5C 140.152,159.347 142.152,157.513 143.5,155C 149.354,150.852 151.521,152.352 150,159.5C 148.242,160.469 147.742,161.636 148.5,163C 147.167,163.333 145.833,163.667 144.5,164C 152.5,164.667 152.5,165.333 144.5,166C 148.852,166.419 149.185,167.086 145.5,168C 149.138,168.25 152.638,168.417 156,168.5C 155.805,170.745 154.638,172.578 152.5,174C 153.167,175.333 154.167,176.333 155.5,177C 153.675,178.466 153.175,180.299 154,182.5C 157.704,184.837 161.371,187.171 165,189.5C 165.233,191.78 166.066,193.78 167.5,195.5C 165.665,196.428 165.332,197.594 166.5,199C 183.903,202.467 183.57,204.633 165.5,205.5C 166.021,201.078 164.021,198.745 159.5,198.5C 158.253,196.994 158.253,195.494 159.5,194C 156.794,192.092 153.794,191.259 150.5,191.5C 150.905,189.35 151.405,187.35 152,185.5C 149.618,184.446 147.118,183.779 144.5,183.5C 144.192,185.924 144.526,188.257 145.5,190.5C 147.359,192.192 149.359,193.692 151.5,195C 147.62,196.857 147.954,198.19 152.5,199C 156.444,203.057 159.777,207.557 162.5,212.5C 164.773,213.279 166.606,214.612 168,216.5C 170.848,217.783 173.682,217.783 176.5,216.5C 177.168,214.074 177.502,211.741 177.5,209.5C 181.278,210.277 184.611,211.944 187.5,214.5C 191.904,213.753 195.904,212.087 199.5,209.5C 201.942,211.643 204.608,211.81 207.5,210C 206.149,207.875 206.815,206.708 209.5,206.5C 212.686,206.668 216.019,206.835 219.5,207C 221.879,207.716 223.879,208.883 225.5,210.5C 229.963,215.465 234.63,220.298 239.5,225C 236.5,225.333 233.5,225.667 230.5,226C 232.167,226.167 233.833,226.333 235.5,226.5C 239.494,223.598 242.494,224.265 244.5,228.5C 217.5,228.5 190.5,228.5 163.5,228.5C 163.918,227.778 164.584,227.278 165.5,227C 143.836,226.5 122.169,226.333 100.5,226.5C 99.7101,225.206 98.7101,224.039 97.5,223C 97.8333,222 98.1667,221 98.5,220C 97.2899,218.961 96.2899,217.794 95.5,216.5C 93.8333,215.5 92.5,214.167 91.5,212.5C 88.0359,209.538 84.7025,206.371 81.5,203C 82.056,202.617 82.3893,202.117 82.5,201.5C 89.2276,197.477 95.5609,192.977 101.5,188C 102.833,185.333 104.167,182.667 105.5,180C 107.5,179.5 109.5,179 111.5,178.5C 113.108,180.262 115.108,181.428 117.5,182C 113.722,184.112 110.222,186.612 107,189.5C 106.691,192.048 107.858,193.715 110.5,194.5C 114.095,193.212 117.095,191.212 119.5,188.5C 122.167,189.833 124.833,189.833 127.5,188.5C 128.167,188.667 128.833,188.833 129.5,189C 128.692,189.308 128.025,189.808 127.5,190.5C 128.365,191.583 129.365,191.749 130.5,191C 133.833,189 136.5,186.333 138.5,183C 142.77,182.066 145.77,179.733 147.5,176C 145.185,173.894 142.518,173.228 139.5,174C 140.475,176.412 139.808,178.412 137.5,180C 137.833,180.333 138.167,180.667 138.5,181C 133.828,181.605 129.328,183.105 125,185.5C 123.833,185.167 122.667,184.833 121.5,184.5C 123.435,183.932 124.768,182.765 125.5,181C 124.983,178.923 124.316,176.923 123.5,175C 124.938,174.781 126.271,174.281 127.5,173.5C 122.044,173.356 116.377,172.856 110.5,172C 109.864,169.606 109.864,167.106 110.5,164.5C 108.856,164.286 107.356,164.62 106,165.5C 101.456,179.29 92.9555,190.623 80.5,199.5C 79.8333,199.833 79.1667,200.167 78.5,200.5C 78.1667,200.5 77.8333,200.5 77.5,200.5C 77.1667,200.5 76.8333,200.5 76.5,200.5C 82.8163,195.748 88.6496,190.414 94,184.5C 100.663,174.173 105.996,163.173 110,151.5C 112.766,148.223 115.933,145.557 119.5,143.5 Z M 119.5,161.5 C 129.168,160.648 131.334,163.982 126,171.5C 123.316,170.932 120.816,169.932 118.5,168.5C 116.984,165.826 117.317,163.492 119.5,161.5 Z M 132.5,178.5 C 135.797,178.329 136.131,178.995 133.5,180.5C 132.702,180.043 132.369,179.376 132.5,178.5 Z M 96.5,195.5 C 98.8568,195.337 101.19,195.503 103.5,196C 101.697,198.103 99.3641,198.936 96.5,198.5C 96.5,197.5 96.5,196.5 96.5,195.5 Z M 132.5,197.5 C 137.5,197.5 142.5,197.5 147.5,197.5C 147.838,199.854 148.338,202.187 149,204.5C 152.2,206.765 155.533,208.765 159,210.5C 160.164,215.138 158.33,217.138 153.5,216.5C 151.366,216.485 149.366,215.985 147.5,215C 143.236,211.016 139.07,206.849 135,202.5C 133.906,200.922 133.072,199.255 132.5,197.5 Z M 119.5,205.5 C 123.514,205.334 127.514,205.501 131.5,206C 133.579,208.278 135.913,210.111 138.5,211.5C 136.854,214.885 134.187,216.052 130.5,215C 127.335,211.937 123.669,209.604 119.5,208C 118.402,207.23 118.402,206.397 119.5,205.5 Z M 95.5,216.5 C 95.6107,215.883 95.944,215.383 96.5,215C 95.9322,213.348 94.5989,211.682 92.5,210C 94.2187,206.644 96.552,205.978 99.5,208C 97.3205,210.772 96.9872,213.439 98.5,216C 97.552,216.483 96.552,216.649 95.5,216.5 Z M 110.5,208.5 C 115.159,208.015 116.492,209.848 114.5,214C 112.568,214.138 110.734,213.638 109,212.5C 108.516,210.807 109.016,209.473 110.5,208.5 Z"/></g>
<g><path style="opacity:0.076" fill="#2a2a2a" d="M 86.5,149.5 C 85.713,151.104 84.3797,151.771 82.5,151.5C 83.5137,150.326 84.847,149.66 86.5,149.5 Z"/></g>
<g><path style="opacity:0.063" fill="#2b2b2b" d="M 241.5,146.5 C 239.502,148.6 237.335,150.6 235,152.5C 232.477,158.449 234.311,160.449 240.5,158.5C 238.545,160.326 236.212,160.826 233.5,160C 231.604,158.192 231.104,156.025 232,153.5C 234.501,150.152 237.668,147.818 241.5,146.5 Z"/></g>
<g><path style="opacity:0.004" fill="#131413" d="M 55.5,152.5 C 56.8734,152.343 58.2068,152.51 59.5,153C 60.5505,154.385 61.8839,155.385 63.5,156C 62.0937,158.449 60.0937,159.449 57.5,159C 57.9574,158.586 58.2907,158.086 58.5,157.5C 57.3947,156.108 56.0614,154.941 54.5,154C 55.056,153.617 55.3893,153.117 55.5,152.5 Z"/></g>
<g><path style="opacity:0.004" fill="#1b1c1b" d="M 197.5,153.5 C 200.001,153.511 200.168,154.178 198,155.5C 197.536,154.906 197.369,154.239 197.5,153.5 Z"/></g>
<g><path style="opacity:0.004" fill="#0f100f" d="M 24.5,154.5 C 26.2252,154.843 26.7252,155.843 26,157.5C 24.9614,156.756 24.4614,155.756 24.5,154.5 Z"/></g>
<g><path style="opacity:0.353" fill="#464646" d="M 78.5,153.5 C 77.4863,154.674 76.153,155.34 74.5,155.5C 75.287,153.896 76.6203,153.229 78.5,153.5 Z"/></g>
<g><path style="opacity:0.4" fill="#626262" d="M 247.5,152.5 C 247.167,154.833 245.833,156.167 243.5,156.5C 244.5,154.833 245.833,153.5 247.5,152.5 Z"/></g>
<g><path style="opacity:0.047" fill="#222222" d="M 221.5,151.5 C 220.671,154.469 220.505,157.469 221,160.5C 222.946,163.42 225.113,166.087 227.5,168.5C 222.4,166.674 219.4,163.007 218.5,157.5C 218.759,155.013 219.759,153.013 221.5,151.5 Z"/></g>
<g><path style="opacity:0.29" fill="#2b2b2b" d="M 73.5,155.5 C 72.4863,156.674 71.153,157.34 69.5,157.5C 70.287,155.896 71.6203,155.229 73.5,155.5 Z"/></g>
<g><path style="opacity:0.4" fill="#4e4e4e" d="M 243.5,156.5 C 243.027,157.906 242.027,158.573 240.5,158.5C 240.973,157.094 241.973,156.427 243.5,156.5 Z"/></g>
<g><path style="opacity:0.102" fill="#333333" d="M 67.5,158.5 C 64.4846,160.674 61.1513,162.341 57.5,163.5C 60.2466,160.793 63.5799,159.127 67.5,158.5 Z"/></g>
<g><path style="opacity:0.004" fill="#1b1c1b" d="M 261.5,161.5 C 263.288,161.215 264.955,161.548 266.5,162.5C 263.497,165.673 259.83,167.839 255.5,169C 255.167,169.333 254.833,169.667 254.5,170C 255.672,170.419 256.672,171.085 257.5,172C 254.937,173.079 252.271,173.579 249.5,173.5C 249.67,172.178 249.337,171.011 248.5,170C 253.24,167.64 257.574,164.807 261.5,161.5 Z"/></g>
<g><path style="opacity:0.004" fill="#0f100f" d="M 3.5,163.5 C 2.83333,162.167 2.83333,162.167 3.5,163.5 Z"/></g>
<g><path style="opacity:0.004" fill="#1b1c1b" d="M 272.5,162.5 C 276.759,163.76 279.759,166.426 281.5,170.5C 280.284,173.25 278.284,174.417 275.5,174C 273.999,172.748 272.332,171.748 270.5,171C 271.167,170.333 271.833,169.667 272.5,169C 268.526,166.631 268.526,164.464 272.5,162.5 Z"/></g>
<g><path style="opacity:0.137" fill="#252525" d="M 57.5,163.5 C 56.1007,164.89 54.4341,165.89 52.5,166.5C 53.4006,164.273 55.0672,163.273 57.5,163.5 Z"/></g>
<g><path style="opacity:0.004" fill="#1b1c1b" d="M 216.5,165.5 C 219.022,165.128 221.022,165.961 222.5,168C 220.833,168.667 219.167,168.667 217.5,168C 216.748,167.329 216.414,166.496 216.5,165.5 Z"/></g>
<g><path style="opacity:0.267" fill="#454545" d="M 52.5,166.5 C 52.0269,167.906 51.0269,168.573 49.5,168.5C 49.9731,167.094 50.9731,166.427 52.5,166.5 Z"/></g>
<g><path style="opacity:0.42" fill="#383838" d="M 49.5,168.5 C 48.4206,170.543 46.754,171.876 44.5,172.5C 45.5387,170.469 47.2054,169.136 49.5,168.5 Z"/></g>
<g><path style="opacity:0.004" fill="#1b1c1b" d="M 259.5,169.5 C 262.278,170.968 265.278,171.801 268.5,172C 267.111,173.957 265.611,175.79 264,177.5C 262.074,175.869 260.24,174.035 258.5,172C 259.252,171.329 259.586,170.496 259.5,169.5 Z"/></g>
<g><path style="opacity:0.004" fill="#161716" d="M 181.5,171.5 C 184.001,171.511 184.168,172.178 182,173.5C 181.536,172.906 181.369,172.239 181.5,171.5 Z"/></g>
<g><path style="opacity:0.004" fill="#141414" d="M 83.5,181.5 C 86.1443,178.006 88.6443,174.34 91,170.5C 92.3389,167.104 92.5056,163.77 91.5,160.5C 89.549,160.227 88.049,160.893 87,162.5C 85.984,161.366 85.3173,161.699 85,163.5C 82.8215,162.16 82.3215,162.493 83.5,164.5C 89.6933,162.848 90.6933,164.348 86.5,169C 82.8892,169.904 79.3892,171.071 76,172.5C 75.0453,174.949 73.5453,176.949 71.5,178.5C 73.919,179.895 75.919,179.395 77.5,177C 78.8333,176.333 80.1667,176.333 81.5,177C 78.1667,181.667 74.1667,185.667 69.5,189C 62.1157,194.322 54.449,194.822 46.5,190.5C 46.8457,189.304 47.3457,189.304 48,190.5C 50.2947,188.053 52.4614,185.553 54.5,183C 53.9747,182.308 53.3081,181.808 52.5,181.5C 50.736,183.278 48.736,184.611 46.5,185.5C 58.4279,173.028 72.7612,164.362 89.5,159.5C 90.9945,159.709 92.1612,160.376 93,161.5C 93.3565,169.789 90.1898,176.456 83.5,181.5 Z M 83.5,164.5 C 82.2334,163.913 81.2334,163.913 80.5,164.5C 81.6136,165.776 82.6136,165.776 83.5,164.5 Z M 55.5,179.5 C 57.1667,179.5 58.8333,179.5 60.5,179.5C 60.1024,175.043 58.4357,175.043 55.5,179.5 Z"/></g>
<g><path style="opacity:0.059" fill="#2a2a2a" d="M 43.5,173.5 C 41.2486,176.295 38.5819,178.628 35.5,180.5C 35.5106,178.983 36.1772,177.816 37.5,177C 39.4048,175.579 41.4048,174.412 43.5,173.5 Z"/></g>
<g><path style="opacity:0.004" fill="#1c1c1c" d="M 297.5,176.5 C 300.462,179.964 303.629,183.297 307,186.5C 307.667,185.833 308.333,185.167 309,184.5C 309.898,187.481 311.898,190.147 315,192.5C 316.085,190.343 317.251,190.176 318.5,192C 318.167,193 317.833,194 317.5,195C 318.784,195.684 319.951,195.517 321,194.5C 322.333,195.833 323.667,197.167 325,198.5C 325.333,198.167 325.667,197.833 326,197.5C 328.333,199.833 330.667,202.167 333,204.5C 333.667,203.833 334.333,203.167 335,202.5C 339,206.5 343,210.5 347,214.5C 348,214.167 349,213.833 350,213.5C 352.333,215.833 354.667,218.167 357,220.5C 357.667,219.833 358.333,219.167 359,218.5C 361,220.5 363,222.5 365,224.5C 365.667,223.833 366.333,223.167 367,222.5C 369.04,224.37 370.873,226.37 372.5,228.5C 329.833,228.5 287.167,228.5 244.5,228.5C 242.494,224.265 239.494,223.598 235.5,226.5C 233.833,226.333 232.167,226.167 230.5,226C 233.5,225.667 236.5,225.333 239.5,225C 234.63,220.298 229.963,215.465 225.5,210.5C 227.696,210.59 229.863,210.923 232,211.5C 233.447,211.055 234.78,210.388 236,209.5C 238.199,210.645 240.365,210.645 242.5,209.5C 238.979,203.35 240.646,201.35 247.5,203.5C 253.48,200.451 259.814,198.284 266.5,197C 270.631,192.861 275.298,189.528 280.5,187C 281.833,185 283.167,183 284.5,181C 289.651,180.203 293.985,181.703 297.5,185.5C 299.111,184.68 299.778,183.346 299.5,181.5C 297.088,181.756 295.421,180.756 294.5,178.5C 295.005,177.081 296.005,176.415 297.5,176.5 Z M 283.5,190.5 C 284.386,189.224 285.386,189.224 286.5,190.5C 285.575,191.562 284.575,191.562 283.5,190.5 Z M 278.5,194.5 C 284.111,197.086 283.778,198.42 277.5,198.5C 275.288,198.588 273.288,198.088 271.5,197C 273.833,195.957 276.166,195.124 278.5,194.5 Z"/></g>
<g><path style="opacity:0.063" fill="#252525" d="M 82.5,182.5 C 80.6212,185.115 78.2879,187.281 75.5,189C 74.255,189.791 72.9217,190.291 71.5,190.5C 74.6267,187.102 78.2934,184.435 82.5,182.5 Z"/></g>
<g><path style="opacity:0.055" fill="#323232" d="M 71.5,190.5 C 70.3406,192.25 68.674,193.25 66.5,193.5C 67.6594,191.75 69.326,190.75 71.5,190.5 Z"/></g>
<g><path style="opacity:0.034" fill="#202020" d="M 46.5,185.5 C 44.8276,188.946 45.161,192.113 47.5,195C 53.6595,195.898 59.6595,195.398 65.5,193.5C 64.3998,194.558 63.0664,195.392 61.5,196C 56.5,196.667 51.5,196.667 46.5,196C 44.0904,195.242 43.0904,193.575 43.5,191C 43.124,188.345 44.124,186.512 46.5,185.5 Z"/></g>
<g><path style="opacity:0.004" fill="#181818" d="M 214.5,199.5 C 216.176,200.183 216.843,201.517 216.5,203.5C 215.127,203.657 213.793,203.49 212.5,203C 213.305,201.887 213.972,200.721 214.5,199.5 Z"/></g>
<g><path style="opacity:0.004" fill="#1b1c1b" d="M 236.5,201.5 C 238.983,201.73 239.483,202.397 238,203.5C 236.97,203.164 236.47,202.497 236.5,201.5 Z"/></g>
<g><path style="opacity:0.004" fill="#161716" d="M 188.5,203.5 C 190.857,203.337 193.19,203.503 195.5,204C 196.804,206.478 195.97,207.978 193,208.5C 191.099,207.464 189.265,206.298 187.5,205C 188.056,204.617 188.389,204.117 188.5,203.5 Z"/></g>
<g><path style="opacity:0.004" fill="#131413" d="M 136.5,228.5 C 142.833,227.167 149.167,227.167 155.5,228.5C 149.167,228.5 142.833,228.5 136.5,228.5 Z"/></g>
</svg>
